<svg width="17" height="17" viewBox="0 0 17 17" fill="none" xmlns="http://www.w3.org/2000/svg">
<path d="M10.271 4.25C10.8211 4.25 11.0961 4.25 11.313 4.33987C11.6023 4.45968 11.8322 4.68951 11.9519 4.97878C12.0418 5.19573 12.0418 5.47076 12.0418 6.02083C12.0418 6.5709 12.0418 6.84594 11.9519 7.06289C11.8322 7.35215 11.6023 7.582 11.313 7.70178C11.0961 7.79167 10.8211 7.79167 10.271 7.79167H6.72933C6.17926 7.79167 5.90423 7.79167 5.68727 7.70178C5.398 7.582 5.16818 7.35215 5.04836 7.06289C4.9585 6.84594 4.9585 6.5709 4.9585 6.02083C4.9585 5.47076 4.9585 5.19573 5.04836 4.97878C5.16818 4.68951 5.398 4.45968 5.68727 4.33987C5.90423 4.25 6.17926 4.25 6.72933 4.25H10.271Z" stroke="#F7F7F7" stroke-width="1.5" stroke-linecap="round"/>
<path d="M7.79183 12.0417H6.37516M6.37516 12.0417H4.9585M6.37516 12.0417V13.4583M6.37516 12.0417V10.625" stroke="#F7F7F7" stroke-width="1.5" stroke-linecap="round"/>
<path d="M12.0415 12.75V11.3334" stroke="#F7F7F7" stroke-width="1.5" stroke-linecap="round" stroke-linejoin="round"/>
<path d="M14.875 9.20829V7.79163C14.875 5.13557 14.875 3.80753 14.1986 2.87655C13.9802 2.57588 13.7157 2.31147 13.4151 2.09302C12.4841 1.41663 11.156 1.41663 8.5 1.41663C5.84394 1.41663 4.51591 1.41663 3.58492 2.09302C3.28426 2.31147 3.01984 2.57588 2.80139 2.87655C2.125 3.80753 2.125 5.13557 2.125 7.79163V9.20829C2.125 11.8643 2.125 13.1924 2.80139 14.1233C3.01984 14.424 3.28426 14.6885 3.58492 14.9069C4.51591 15.5833 5.84394 15.5833 8.5 15.5833C11.156 15.5833 12.4841 15.5833 13.4151 14.9069C13.7157 14.6885 13.9802 14.424 14.1986 14.1233C14.875 13.1924 14.875 11.8643 14.875 9.20829Z" stroke="#F7F7F7" stroke-width="1.5" stroke-linecap="round"/>
</svg>
