<svg width="124" height="31" viewBox="0 0 124 31" fill="none" xmlns="http://www.w3.org/2000/svg">
<path d="M11.0953 20.3736V11.3081C10.1805 10.5606 9.03962 10.104 7.83263 10.104C5.22033 10.104 3.68707 12.0874 3.68707 15.8249C3.68707 19.3989 5.12224 21.3802 7.76653 21.3802C8.94153 21.3802 10.1485 20.9916 11.0953 20.3736ZM15.9254 22.7138L12.4985 24.5656L11.3875 22.1617C10.2466 23.559 8.54915 24.5656 6.36335 24.5656C2.1858 24.5656 0 21.1211 0 15.7909C0 10.0084 2.57818 6.88676 6.68962 6.88676C8.61526 6.88676 10.1165 7.60241 11.0953 8.93602V0.420468H14.6182V20.1145L15.9254 22.7138ZM22.0585 13.6801H30.3794C30.2174 11.1445 29.0104 9.94259 26.7585 9.94259C24.3104 9.94259 22.6129 11.3399 22.0585 13.6801ZM33.414 16.1158H21.8623C22.0926 19.074 24.4085 21.0553 28.0636 21.0553C29.9231 21.0553 31.9468 20.6667 33.3159 19.951L32.207 23.559C31.0661 24.1748 29.1405 24.5656 26.9205 24.5656C21.6682 24.5656 18.2072 21.0234 18.2072 15.6295C18.2072 10.2017 21.504 6.88889 26.7585 6.88889C31.0981 6.88889 33.8383 9.35861 33.8383 13.3552C33.8383 14.2641 33.6763 15.3365 33.414 16.1158ZM41.9972 24.143L35.3396 7.31148H39.2229L43.5625 19.074L44.053 20.5371H44.1831L44.6714 19.074L48.9812 7.31148H52.7983L46.1727 24.143H41.9972ZM64.35 7.34333H71.9843L71.496 10.0403H63.8595L61.1833 25.1835C60.4326 29.4073 57.5943 31 53.6129 31C51.7854 31 50.9366 30.7409 50.0239 30.5456L49.9578 27.8146C50.8727 27.9781 51.9496 28.0758 53.4509 28.0758C55.8328 28.0758 57.3981 27.133 57.7585 25.1517L60.4326 10.0403H55.1142L55.6047 7.34333H60.9231L61.1833 5.7825C61.9339 1.59056 64.7402 0 68.6896 0C70.5491 0 71.496 0.259076 72.3106 0.454445L72.3767 3.24908C71.464 3.02185 70.3871 2.92417 68.8858 2.92417C66.5358 2.92417 64.9706 3.86491 64.6102 5.84833L64.35 7.34333ZM76.39 13.6801H84.711C84.549 11.1445 83.3398 9.94259 81.09 9.94259C78.642 9.94259 76.9445 11.3399 76.39 13.6801ZM87.7456 16.1158H76.1939C76.422 19.074 78.74 21.0553 82.3951 21.0553C84.2547 21.0553 86.2784 20.6667 87.6475 19.951L86.5386 23.559C85.3977 24.1748 83.472 24.5656 81.2521 24.5656C75.9977 24.5656 72.5388 21.0234 72.5388 15.6295C72.5388 10.2017 75.8356 6.88889 81.09 6.88889C85.4297 6.88889 88.1699 9.35861 88.1699 13.3552C88.1699 14.2641 88.0079 15.3365 87.7456 16.1158ZM91.5307 23.1364L91.3025 19.367C92.8038 20.4055 95.5441 21.3165 98.4165 21.3165C100.602 21.3165 102.17 20.6327 102.17 19.1058C102.17 15.9226 91.6608 18.8786 91.6608 12.3805C91.6608 9.35649 93.9468 6.7912 99.3953 6.7912C102.724 6.7912 105.268 7.60241 105.268 9.61769C105.268 10.2356 105.008 10.7559 104.748 11.2422C103.311 10.5606 101.059 10.0721 99.1672 10.0721C96.557 10.0721 95.1858 11.0469 95.1858 12.1193C95.1858 14.9457 105.823 12.4781 105.823 18.8149C105.823 22.3549 102.692 24.5656 98.0242 24.5656C94.8595 24.5656 92.4775 23.559 91.5307 23.1364ZM124 20.569L123.281 23.8499C122.433 24.2088 120.735 24.5656 119.17 24.5656C114.96 24.5656 113.167 22.3889 113.167 19.3012V10.2675H108.369V7.31148H113.167V2.69694H116.69V7.31148H123.51V10.2675H116.69V18.2288C116.69 20.4055 117.833 21.3802 119.822 21.3802C120.965 21.3802 123.053 21.1211 124 20.569Z" fill="#2B83FC"/>
</svg>
