<svg width="96" height="130" viewBox="0 0 96 130" fill="none" xmlns="http://www.w3.org/2000/svg">
<path d="M0 0V26.2662H24.118V78.3288H47.6464V91.2466H71.4428V130H95.2571V91.2466V83.8287V78.3288V26.2662V0H0Z" fill="#4285FA"/>
<mask id="mask0_0_1220" style="mask-type:luminance" maskUnits="userSpaceOnUse" x="0" y="0" width="96" height="130">
<path d="M0 0V26.2662H24.1001V78.3288H47.6285V91.2466H71.4428V130H95.2571V91.2466V83.8287V78.3288V26.2662V0H0Z" fill="white"/>
</mask>
<g mask="url(#mask0_0_1220)">
<path d="M48.0398 157.617H95.9899V105.084L48.0398 105.084L48.0398 157.617Z" stroke="#80B4FE" stroke-miterlimit="10"/>
<path d="M71.9966 157.617C85.2377 157.617 95.9717 145.857 95.9717 131.351C95.9717 116.844 85.2377 105.084 71.9966 105.084C58.7556 105.084 48.0216 116.844 48.0216 131.351C48.0216 145.857 58.7556 157.617 71.9966 157.617Z" stroke="#80B4FE" stroke-miterlimit="10"/>
<path d="M71.9969 105.084V157.617" stroke="#80B4FE" stroke-miterlimit="10"/>
<path d="M0.0714789 157.617H48.0216L48.0216 105.084L0.0714789 105.084L0.0714789 157.617Z" stroke="#80B4FE" stroke-miterlimit="10"/>
<path d="M24.0465 157.617C37.2875 157.617 48.0215 145.857 48.0215 131.351C48.0215 116.844 37.2875 105.084 24.0465 105.084C10.8054 105.084 0.0714178 116.844 0.0714178 131.351C0.0714178 145.857 10.8054 157.617 24.0465 157.617Z" stroke="#80B4FE" stroke-miterlimit="10"/>
<path d="M24.0467 105.084V157.617" stroke="#80B4FE" stroke-miterlimit="10"/>
<path d="M-47.8787 157.617H0.0714178L0.0714178 105.084L-47.8787 105.084L-47.8787 157.617Z" stroke="#80B4FE" stroke-miterlimit="10"/>
<path d="M-23.9213 157.617C-10.6803 157.617 0.0537659 145.857 0.0537659 131.351C0.0537659 116.844 -10.6803 105.084 -23.9213 105.084C-37.1624 105.084 -47.8964 116.844 -47.8964 131.351C-47.8964 145.857 -37.1624 157.617 -23.9213 157.617Z" stroke="#80B4FE" stroke-miterlimit="10"/>
<path d="M48.0398 105.084H95.9899V52.5519L48.0398 52.5519L48.0398 105.084Z" stroke="#80B4FE" stroke-miterlimit="10"/>
<path d="M71.9966 105.084C85.2377 105.084 95.9717 93.3246 95.9717 78.8182C95.9717 64.3117 85.2377 52.552 71.9966 52.552C58.7556 52.552 48.0216 64.3117 48.0216 78.8182C48.0216 93.3246 58.7556 105.084 71.9966 105.084Z" stroke="#80B4FE" stroke-miterlimit="10"/>
<path d="M95.9717 78.8182H48.0216" stroke="#80B4FE" stroke-miterlimit="10"/>
<path d="M71.9969 52.5324V105.084" stroke="#80B4FE" stroke-miterlimit="10"/>
<path d="M0.0714789 105.084H48.0216L48.0216 52.5519L0.0714789 52.5519L0.0714789 105.084Z" stroke="#80B4FE" stroke-miterlimit="10"/>
<path d="M24.0465 105.084C37.2875 105.084 48.0215 93.3246 48.0215 78.8182C48.0215 64.3117 37.2875 52.552 24.0465 52.552C10.8054 52.552 0.0714178 64.3117 0.0714178 78.8182C0.0714178 93.3246 10.8054 105.084 24.0465 105.084Z" stroke="#80B4FE" stroke-miterlimit="10"/>
<path d="M48.0218 78.8182H0.0538079" stroke="#80B4FE" stroke-miterlimit="10"/>
<path d="M24.0467 52.5324V105.084" stroke="#80B4FE" stroke-miterlimit="10"/>
<path d="M-47.8787 105.084H0.0714178L0.0714178 52.5519L-47.8787 52.5519L-47.8787 105.084Z" stroke="#80B4FE" stroke-miterlimit="10"/>
<path d="M-23.9213 105.084C-10.6803 105.084 0.0537659 93.3246 0.0537659 78.8182C0.0537659 64.3117 -10.6803 52.552 -23.9213 52.552C-37.1624 52.552 -47.8964 64.3117 -47.8964 78.8182C-47.8964 93.3246 -37.1624 105.084 -23.9213 105.084Z" stroke="#80B4FE" stroke-miterlimit="10"/>
<path d="M0.0537649 78.8182H-47.8964" stroke="#80B4FE" stroke-miterlimit="10"/>
<path d="M48.0398 52.5324L95.9899 52.5324V2.29295e-05L48.0398 2.29295e-05L48.0398 52.5324Z" stroke="#80B4FE" stroke-miterlimit="10"/>
<path d="M71.9966 52.5324C85.2377 52.5324 95.9717 40.7726 95.9717 26.2662C95.9717 11.7598 85.2377 0 71.9966 0C58.7556 0 48.0216 11.7598 48.0216 26.2662C48.0216 40.7726 58.7556 52.5324 71.9966 52.5324Z" stroke="#80B4FE" stroke-miterlimit="10"/>
<path d="M95.9717 26.2662H48.0216" stroke="#80B4FE" stroke-miterlimit="10"/>
<path d="M71.9969 0V52.5324" stroke="#80B4FE" stroke-miterlimit="10"/>
<path d="M0.0714789 52.5324L48.0216 52.5324L48.0216 2.29295e-05L0.0714789 2.29295e-05L0.0714789 52.5324Z" stroke="#80B4FE" stroke-miterlimit="10"/>
<path d="M24.0465 52.5324C37.2875 52.5324 48.0215 40.7726 48.0215 26.2662C48.0215 11.7598 37.2875 0 24.0465 0C10.8054 0 0.0714178 11.7598 0.0714178 26.2662C0.0714178 40.7726 10.8054 52.5324 24.0465 52.5324Z" stroke="#80B4FE" stroke-miterlimit="10"/>
<path d="M48.0218 26.2662H0.0538079" stroke="#80B4FE" stroke-miterlimit="10"/>
<path d="M24.0467 0V52.5324" stroke="#80B4FE" stroke-miterlimit="10"/>
<path d="M-47.8787 52.5324L0.0714178 52.5324L0.0714178 2.29295e-05L-47.8787 2.29295e-05L-47.8787 52.5324Z" stroke="#80B4FE" stroke-miterlimit="10"/>
<path d="M-23.9213 52.5324C-10.6803 52.5324 0.0537659 40.7726 0.0537659 26.2662C0.0537659 11.7598 -10.6803 0 -23.9213 0C-37.1624 0 -47.8964 11.7598 -47.8964 26.2662C-47.8964 40.7726 -37.1624 52.5324 -23.9213 52.5324Z" stroke="#80B4FE" stroke-miterlimit="10"/>
<path d="M0.0537649 26.2662H-47.8964" stroke="#80B4FE" stroke-miterlimit="10"/>
</g>
<path d="M22.8853 77.4089H0V102.481H22.8853V77.4089Z" fill="#F9AB00"/>
</svg>
