<svg width="104" height="28" viewBox="0 0 104 28" fill="none" xmlns="http://www.w3.org/2000/svg">
<path d="M9.30577 17.9942V9.9874C8.53849 9.3272 7.58162 8.92395 6.56931 8.92395C4.37835 8.92395 3.09238 10.6757 3.09238 13.9767C3.09238 17.1333 4.29607 18.8832 6.51386 18.8832C7.49935 18.8832 8.51166 18.54 9.30577 17.9942ZM13.3568 20.0611L10.4826 21.6966L9.5508 19.5734C8.59393 20.8076 7.17025 21.6966 5.337 21.6966C1.83325 21.6966 0 18.6544 0 13.9467C0 8.83955 2.16234 6.08247 5.61065 6.08247C7.2257 6.08247 8.48483 6.71454 9.30577 7.89239V0.371363H12.2604V17.7654L13.3568 20.0611ZM18.5007 12.0824H25.4795C25.3436 9.84299 24.3313 8.78141 22.4426 8.78141C20.3893 8.78141 18.9657 10.0155 18.5007 12.0824ZM28.0246 14.2337H18.3361C18.5293 16.8464 20.4716 18.5963 23.5372 18.5963C25.0968 18.5963 26.7941 18.253 27.9424 17.621L27.0123 20.8076C26.0554 21.3515 24.4404 21.6966 22.5785 21.6966C18.1733 21.6966 15.2705 18.5681 15.2705 13.8042C15.2705 9.01023 18.0356 6.08434 22.4426 6.08434C26.0823 6.08434 28.3805 8.26563 28.3805 11.7954C28.3805 12.5982 28.2446 13.5454 28.0246 14.2337ZM35.2235 21.3233L29.6397 6.45758H32.8966L36.5363 16.8464L36.9477 18.1386H37.0568L37.4663 16.8464L41.081 6.45758H44.2825L38.7255 21.3233H35.2235ZM53.971 6.48571H60.3739L59.9644 8.86769H53.5596L51.315 22.2424C50.6854 25.9729 48.3049 27.3796 44.9657 27.3796C43.4329 27.3796 42.7211 27.1507 41.9556 26.9782L41.9001 24.5662C42.6674 24.7106 43.5706 24.7969 44.8297 24.7969C46.8275 24.7969 48.1403 23.9641 48.4426 22.2142L50.6854 8.86769H46.2248L46.6362 6.48571H51.0968L51.315 5.10717C51.9446 1.4048 54.2983 0 57.6106 0C59.1702 0 59.9644 0.228819 60.6476 0.401371L60.703 2.86962C59.9375 2.66893 59.0343 2.58266 57.7752 2.58266C55.8042 2.58266 54.4914 3.41354 54.1892 5.16532L53.971 6.48571ZM64.0691 12.0824H71.0479C70.912 9.84299 69.8979 8.78141 68.011 8.78141C65.9578 8.78141 64.5341 10.0155 64.0691 12.0824ZM73.593 14.2337H63.9045C64.0959 16.8464 66.04 18.5963 69.1056 18.5963C70.6652 18.5963 72.3625 18.253 73.5108 17.621L72.5807 20.8076C71.6238 21.3515 70.0088 21.6966 68.1469 21.6966C63.74 21.6966 60.839 18.5681 60.839 13.8042C60.839 9.01023 63.604 6.08434 68.011 6.08434C71.6507 6.08434 73.949 8.26563 73.949 11.7954C73.949 12.5982 73.813 13.5454 73.593 14.2337ZM76.7677 20.4343L76.5763 17.1052C77.8354 18.0223 80.1337 18.827 82.5429 18.827C84.3761 18.827 85.6907 18.223 85.6907 16.8745C85.6907 14.063 76.8768 16.6738 76.8768 10.9346C76.8768 8.26375 78.7941 5.99807 83.3638 5.99807C86.1557 5.99807 88.2895 6.71454 88.2895 8.49445C88.2895 9.04024 88.0713 9.49975 87.8531 9.92926C86.6476 9.3272 84.7589 8.89582 83.1725 8.89582C80.9833 8.89582 79.8332 9.75671 79.8332 10.7039C79.8332 13.2003 88.7545 11.0208 88.7545 16.6175C88.7545 19.7441 86.1289 21.6966 82.2138 21.6966C79.5596 21.6966 77.5618 20.8076 76.7677 20.4343ZM104 18.1668L103.397 21.0645C102.685 21.3815 101.262 21.6966 99.949 21.6966C96.4184 21.6966 94.9142 19.7741 94.9142 17.047V9.06837H90.89V6.45758H94.9142V2.38197H97.8689V6.45758H103.589V9.06837H97.8689V16.0999C97.8689 18.0223 98.8275 18.8832 100.496 18.8832C101.455 18.8832 103.206 18.6544 104 18.1668Z" fill="#F7F7F7"/>
</svg>
