<svg width="342" height="44" viewBox="0 0 342 44" fill="none" xmlns="http://www.w3.org/2000/svg">
<path d="M113.264 19.1708C113.264 22.5551 112.261 25.255 110.25 27.266C107.992 29.6597 105.024 30.8544 101.342 30.8544C97.6603 30.8544 94.8414 29.6342 92.401 27.198C89.9648 24.7618 88.7445 21.7601 88.7445 18.1929C88.7445 14.6258 89.9648 11.6241 92.401 9.18362C94.8372 6.74741 97.8176 5.52718 101.342 5.52718C103.124 5.52718 104.807 5.8418 106.389 6.4753C107.971 7.1088 109.267 7.9974 110.284 9.1496L108.047 11.386C107.303 10.4846 106.338 9.77885 105.152 9.26865C103.966 8.7627 102.699 8.5076 101.342 8.5076C98.702 8.5076 96.4656 9.42171 94.6374 11.2499C92.8304 13.0994 91.929 15.4166 91.929 18.1929C91.929 20.9693 92.8304 23.2822 94.6374 25.1359C96.4656 26.9641 98.702 27.8782 101.342 27.8782C103.757 27.8782 105.768 27.2022 107.371 25.8459C108.974 24.4897 109.901 22.6274 110.147 20.2592H101.342V17.3468H113.094C113.209 17.9803 113.264 18.5883 113.264 19.1751V19.1708Z" fill="#676C72"/>
<path d="M117.057 30.3102V6.06718H124.471C128.175 6.06718 131.147 7.18537 133.396 9.4175C135.641 11.6539 136.763 14.5748 136.763 18.1887C136.763 21.8026 135.641 24.7533 133.396 26.9769C131.151 29.2005 128.175 30.3102 124.471 30.3102H117.057ZM120.173 9.04335V27.3298H124.471C127.295 27.3298 129.518 26.522 131.142 24.9106C132.766 23.295 133.579 21.0543 133.579 18.1887C133.579 15.3231 132.766 13.108 131.142 11.4838C129.518 9.85967 127.295 9.0476 124.471 9.0476H120.173V9.04335Z" fill="#676C72"/>
<path d="M163.787 19.1709C163.787 22.5552 162.783 25.255 160.772 27.2661C158.515 29.6598 155.547 30.8545 151.865 30.8545C148.183 30.8545 145.364 29.6342 142.924 27.198C140.488 24.7618 139.267 21.7601 139.267 18.193C139.267 14.6258 140.488 11.6241 142.924 9.18368C145.36 6.74747 148.34 5.52724 151.865 5.52724C153.647 5.52724 155.33 5.84186 156.912 6.47536C158.493 7.10886 159.79 7.99746 160.806 9.14967L158.57 11.386C157.826 10.4847 156.861 9.77891 155.675 9.26871C154.488 8.76276 153.221 8.50766 151.865 8.50766C149.225 8.50766 146.988 9.42177 145.16 11.25C143.353 13.0995 142.452 15.4166 142.452 18.193C142.452 20.9693 143.353 23.2822 145.16 25.136C146.988 26.9642 149.225 27.8783 151.865 27.8783C154.28 27.8783 156.291 27.2023 157.894 25.846C159.497 24.4897 160.424 22.6275 160.67 20.2593H151.865V17.3469H163.617C163.731 17.9804 163.787 18.5884 163.787 19.1751V19.1709Z" fill="#676C72"/>
<path d="M175.432 30.3102H171.979L181.121 6.06718H184.641L193.782 30.3102H190.33L187.991 23.7414H177.8L175.432 30.3102ZM182.813 9.88944L178.85 20.829H186.911L182.949 9.88944H182.813Z" fill="#676C72"/>
<path d="M199.203 6.06718V30.3102H196.087V6.06718H199.203Z" fill="#676C72"/>
<path d="M210.177 38.1673C209.25 38.1673 208.382 38.0482 207.57 37.8102C206.758 37.5721 206.019 37.2404 205.351 36.811C204.683 36.3816 204.114 35.8756 203.642 35.2889C203.166 34.7022 202.809 34.0474 202.558 33.3246L205.504 32.1044C205.844 33.0738 206.431 33.8518 207.264 34.4428C208.098 35.0296 209.071 35.3229 210.177 35.3229C211.869 35.3229 213.191 34.817 214.139 33.8008C215.087 32.7847 215.564 31.3859 215.564 29.6002V28.01H215.427C214.841 28.8901 214.046 29.5832 213.042 30.0934C212.039 30.5993 210.946 30.8544 209.773 30.8544C207.604 30.8544 205.742 30.0083 204.186 28.3162C202.651 26.5772 201.882 24.4769 201.882 22.0194C201.882 19.562 202.647 17.4701 204.186 15.7567C205.742 14.0433 207.604 13.1844 209.773 13.1844C210.946 13.1844 212.035 13.4395 213.042 13.9455C214.046 14.4514 214.841 15.1487 215.427 16.0288H215.564V13.7244H218.544V29.6044C218.544 32.266 217.787 34.3578 216.274 35.8671C214.739 37.402 212.706 38.1715 210.177 38.1715V38.1673ZM210.279 28.01C211.814 28.01 213.068 27.4573 214.037 26.3519C215.053 25.2464 215.559 23.8009 215.559 22.0194C215.559 20.238 215.053 18.8477 214.037 17.721C213.042 16.5943 211.792 16.0288 210.279 16.0288C208.765 16.0288 207.536 16.5943 206.52 17.721C205.504 18.8519 204.998 20.2847 204.998 22.0194C204.998 23.7541 205.504 25.2124 206.52 26.3221C207.536 27.4531 208.791 28.0143 210.279 28.0143V28.01Z" fill="#676C72"/>
<path d="M226.363 7.9974C226.363 8.60539 226.146 9.12835 225.721 9.55352C225.291 9.98293 224.772 10.1955 224.164 10.1955C223.557 10.1955 223.034 9.98293 222.608 9.55352C222.179 9.1241 221.966 8.60539 221.966 7.9974C221.966 7.38941 222.179 6.87071 222.608 6.44129C223.038 6.01187 223.557 5.79928 224.164 5.79928C224.772 5.79928 225.291 6.01612 225.721 6.44129C226.15 6.87071 226.363 7.38941 226.363 7.9974ZM225.721 13.7202V30.3144H222.604V13.7202H225.721Z" fill="#676C72"/>
<path d="M237.065 30.8544C234.628 30.8544 232.617 30.0211 231.036 28.3502C229.454 26.6793 228.667 24.5704 228.667 22.0194C228.667 19.4684 229.433 17.3851 230.972 15.7057C232.507 14.022 234.471 13.1844 236.865 13.1844C239.258 13.1844 241.282 13.9795 242.741 15.5739C244.195 17.164 244.926 19.3961 244.926 22.2618L244.892 22.6019H231.856C231.903 24.226 232.443 25.5356 233.48 26.5305C234.518 27.5253 235.759 28.0185 237.205 28.0185C239.19 28.0185 240.751 27.0236 241.877 25.0381L244.654 26.3944C243.91 27.7932 242.877 28.8901 241.554 29.6809C240.232 30.4718 238.74 30.8672 237.069 30.8672L237.065 30.8544ZM232.086 20.0169H241.601C241.512 18.8647 241.044 17.9123 240.194 17.1555C239.348 16.3987 238.212 16.0203 236.792 16.0203C235.619 16.0203 234.607 16.3817 233.761 17.1045C232.915 17.8273 232.354 18.7967 232.086 20.0169Z" fill="#676C72"/>
<path d="M250.878 30.3102H247.762V13.7201H250.742V16.4284H250.878C251.193 15.5483 251.843 14.8 252.825 14.175C253.807 13.5543 254.773 13.2439 255.721 13.2439C256.669 13.2439 257.392 13.38 258.025 13.6521L257.077 16.6665C256.694 16.5092 256.082 16.4284 255.249 16.4284C254.075 16.4284 253.055 16.9046 252.183 17.8527C251.312 18.8009 250.878 19.9063 250.878 21.169V30.3102Z" fill="#676C72"/>
<path d="M272.077 25.7057C272.077 27.1513 271.443 28.3715 270.18 29.3621C268.918 30.357 267.323 30.8502 265.406 30.8502C263.735 30.8502 262.268 30.4166 261.005 29.545C259.743 28.6776 258.837 27.5297 258.297 26.1096L261.073 24.9234C261.482 25.9183 262.073 26.6921 262.851 27.2448C263.629 27.7975 264.483 28.0739 265.406 28.0739C266.401 28.0739 267.23 27.8613 267.893 27.4319C268.561 27.0025 268.892 26.4965 268.892 25.9098C268.892 24.8469 268.08 24.0688 266.456 23.5714L263.612 22.8613C260.385 22.0493 258.769 20.4932 258.769 18.1887C258.769 16.6751 259.385 15.4634 260.614 14.5493C261.843 13.6352 263.42 13.176 265.338 13.176C266.805 13.176 268.131 13.5247 269.317 14.2262C270.504 14.9277 271.333 15.8631 271.805 17.0365L269.028 18.1887C268.714 17.4872 268.199 16.943 267.489 16.5476C266.779 16.1522 265.984 15.9566 265.104 15.9566C264.292 15.9566 263.565 16.1607 262.919 16.5646C262.277 16.9728 261.953 17.466 261.953 18.0527C261.953 19.0008 262.846 19.6768 264.628 20.085L267.132 20.727C270.427 21.5391 272.077 23.1972 272.077 25.7057Z" fill="#676C72"/>
<path d="M113.264 19.1708C113.264 22.5551 112.261 25.255 110.25 27.266C107.992 29.6597 105.024 30.8544 101.342 30.8544C97.6603 30.8544 94.8414 29.6342 92.401 27.198C89.9648 24.7618 88.7445 21.7601 88.7445 18.1929C88.7445 14.6258 89.9648 11.6241 92.401 9.18362C94.8372 6.74741 97.8176 5.52718 101.342 5.52718C103.124 5.52718 104.807 5.8418 106.389 6.4753C107.971 7.1088 109.267 7.9974 110.284 9.1496L108.047 11.386C107.303 10.4846 106.338 9.77885 105.152 9.26865C103.966 8.7627 102.699 8.5076 101.342 8.5076C98.702 8.5076 96.4656 9.42171 94.6374 11.2499C92.8304 13.0994 91.929 15.4166 91.929 18.1929C91.929 20.9693 92.8304 23.2822 94.6374 25.1359C96.4656 26.9641 98.702 27.8782 101.342 27.8782C103.757 27.8782 105.768 27.2022 107.371 25.8459C108.974 24.4897 109.901 22.6274 110.147 20.2592H101.342V17.3468H113.094C113.209 17.9803 113.264 18.5883 113.264 19.1751V19.1708Z" fill="#676C72"/>
<path d="M117.057 30.3102V6.06718H124.471C128.175 6.06718 131.147 7.18537 133.396 9.4175C135.641 11.6539 136.763 14.5748 136.763 18.1887C136.763 21.8026 135.641 24.7533 133.396 26.9769C131.151 29.2005 128.175 30.3102 124.471 30.3102H117.057ZM120.173 9.04335V27.3298H124.471C127.295 27.3298 129.518 26.522 131.142 24.9106C132.766 23.295 133.579 21.0543 133.579 18.1887C133.579 15.3231 132.766 13.108 131.142 11.4838C129.518 9.85967 127.295 9.0476 124.471 9.0476H120.173V9.04335Z" fill="#676C72"/>
<path d="M163.787 19.1709C163.787 22.5552 162.783 25.255 160.772 27.2661C158.515 29.6598 155.547 30.8545 151.865 30.8545C148.183 30.8545 145.364 29.6342 142.924 27.198C140.488 24.7618 139.267 21.7601 139.267 18.193C139.267 14.6258 140.488 11.6241 142.924 9.18368C145.36 6.74747 148.34 5.52724 151.865 5.52724C153.647 5.52724 155.33 5.84186 156.912 6.47536C158.493 7.10886 159.79 7.99746 160.806 9.14967L158.57 11.386C157.826 10.4847 156.861 9.77891 155.675 9.26871C154.488 8.76276 153.221 8.50766 151.865 8.50766C149.225 8.50766 146.988 9.42177 145.16 11.25C143.353 13.0995 142.452 15.4166 142.452 18.193C142.452 20.9693 143.353 23.2822 145.16 25.136C146.988 26.9642 149.225 27.8783 151.865 27.8783C154.28 27.8783 156.291 27.2023 157.894 25.846C159.497 24.4897 160.424 22.6275 160.67 20.2593H151.865V17.3469H163.617C163.731 17.9804 163.787 18.5884 163.787 19.1751V19.1709Z" fill="#676C72"/>
<path d="M175.432 30.3102H171.979L181.121 6.06718H184.641L193.782 30.3102H190.33L187.991 23.7414H177.8L175.432 30.3102ZM182.813 9.88944L178.85 20.829H186.911L182.949 9.88944H182.813Z" fill="#676C72"/>
<path d="M199.203 6.06718V30.3102H196.087V6.06718H199.203Z" fill="#676C72"/>
<path d="M210.177 38.1673C209.25 38.1673 208.382 38.0482 207.57 37.8102C206.758 37.5721 206.019 37.2404 205.351 36.811C204.683 36.3816 204.114 35.8756 203.642 35.2889C203.166 34.7022 202.809 34.0474 202.558 33.3246L205.504 32.1044C205.844 33.0738 206.431 33.8518 207.264 34.4428C208.098 35.0296 209.071 35.3229 210.177 35.3229C211.869 35.3229 213.191 34.817 214.139 33.8008C215.087 32.7847 215.564 31.3859 215.564 29.6002V28.01H215.427C214.841 28.8901 214.046 29.5832 213.042 30.0934C212.039 30.5993 210.946 30.8544 209.773 30.8544C207.604 30.8544 205.742 30.0083 204.186 28.3162C202.651 26.5772 201.882 24.4769 201.882 22.0194C201.882 19.562 202.647 17.4701 204.186 15.7567C205.742 14.0433 207.604 13.1844 209.773 13.1844C210.946 13.1844 212.035 13.4395 213.042 13.9455C214.046 14.4514 214.841 15.1487 215.427 16.0288H215.564V13.7244H218.544V29.6044C218.544 32.266 217.787 34.3578 216.274 35.8671C214.739 37.402 212.706 38.1715 210.177 38.1715V38.1673ZM210.279 28.01C211.814 28.01 213.068 27.4573 214.037 26.3519C215.053 25.2464 215.559 23.8009 215.559 22.0194C215.559 20.238 215.053 18.8477 214.037 17.721C213.042 16.5943 211.792 16.0288 210.279 16.0288C208.765 16.0288 207.536 16.5943 206.52 17.721C205.504 18.8519 204.998 20.2847 204.998 22.0194C204.998 23.7541 205.504 25.2124 206.52 26.3221C207.536 27.4531 208.791 28.0143 210.279 28.0143V28.01Z" fill="#676C72"/>
<path d="M226.363 7.9974C226.363 8.60539 226.146 9.12835 225.721 9.55352C225.291 9.98293 224.772 10.1955 224.164 10.1955C223.557 10.1955 223.034 9.98293 222.608 9.55352C222.179 9.1241 221.966 8.60539 221.966 7.9974C221.966 7.38941 222.179 6.87071 222.608 6.44129C223.038 6.01187 223.557 5.79928 224.164 5.79928C224.772 5.79928 225.291 6.01612 225.721 6.44129C226.15 6.87071 226.363 7.38941 226.363 7.9974ZM225.721 13.7202V30.3144H222.604V13.7202H225.721Z" fill="#676C72"/>
<path d="M237.065 30.8544C234.628 30.8544 232.617 30.0211 231.036 28.3502C229.454 26.6793 228.667 24.5704 228.667 22.0194C228.667 19.4684 229.433 17.3851 230.972 15.7057C232.507 14.022 234.471 13.1844 236.865 13.1844C239.258 13.1844 241.282 13.9795 242.741 15.5739C244.195 17.164 244.926 19.3961 244.926 22.2618L244.892 22.6019H231.856C231.903 24.226 232.443 25.5356 233.48 26.5305C234.518 27.5253 235.759 28.0185 237.205 28.0185C239.19 28.0185 240.751 27.0236 241.877 25.0381L244.654 26.3944C243.91 27.7932 242.877 28.8901 241.554 29.6809C240.232 30.4718 238.74 30.8672 237.069 30.8672L237.065 30.8544ZM232.086 20.0169H241.601C241.512 18.8647 241.044 17.9123 240.194 17.1555C239.348 16.3987 238.212 16.0203 236.792 16.0203C235.619 16.0203 234.607 16.3817 233.761 17.1045C232.915 17.8273 232.354 18.7967 232.086 20.0169Z" fill="#676C72"/>
<path d="M250.878 30.3102H247.762V13.7201H250.742V16.4284H250.878C251.193 15.5483 251.843 14.8 252.825 14.175C253.807 13.5543 254.773 13.2439 255.721 13.2439C256.669 13.2439 257.392 13.38 258.025 13.6521L257.077 16.6665C256.694 16.5092 256.082 16.4284 255.249 16.4284C254.075 16.4284 253.055 16.9046 252.183 17.8527C251.312 18.8009 250.878 19.9063 250.878 21.169V30.3102Z" fill="#676C72"/>
<path d="M272.077 25.7057C272.077 27.1513 271.443 28.3715 270.18 29.3621C268.918 30.357 267.323 30.8502 265.406 30.8502C263.735 30.8502 262.268 30.4166 261.005 29.545C259.743 28.6776 258.837 27.5297 258.297 26.1096L261.073 24.9234C261.482 25.9183 262.073 26.6921 262.851 27.2448C263.629 27.7975 264.483 28.0739 265.406 28.0739C266.401 28.0739 267.23 27.8613 267.893 27.4319C268.561 27.0025 268.892 26.4965 268.892 25.9098C268.892 24.8469 268.08 24.0688 266.456 23.5714L263.612 22.8613C260.385 22.0493 258.769 20.4932 258.769 18.1887C258.769 16.6751 259.385 15.4634 260.614 14.5493C261.843 13.6352 263.42 13.176 265.338 13.176C266.805 13.176 268.131 13.5247 269.317 14.2262C270.504 14.9277 271.333 15.8631 271.805 17.0365L269.028 18.1887C268.714 17.4872 268.199 16.943 267.489 16.5476C266.779 16.1522 265.984 15.9566 265.104 15.9566C264.292 15.9566 263.565 16.1607 262.919 16.5646C262.277 16.9728 261.953 17.466 261.953 18.0527C261.953 19.0008 262.846 19.6768 264.628 20.085L267.132 20.727C270.427 21.5391 272.077 23.1972 272.077 25.7057Z" fill="#676C72"/>
<path fill-rule="evenodd" clip-rule="evenodd" d="M22.4476 4.1517L2.96647 15.3974C0.296415 16.9407 -0.617696 20.3506 0.925663 23.0206C2.46477 25.6907 5.87887 26.6048 8.54892 25.0614L28.0301 13.8158C30.7001 12.2767 31.6143 8.86256 30.0709 6.19251C28.5318 3.52245 25.1177 2.60834 22.4476 4.1517Z" fill="#EA4334"/>
<path fill-rule="evenodd" clip-rule="evenodd" d="M27.8519 26.7365L8.37072 15.4865C5.70067 13.9474 2.29082 14.8615 0.747465 17.5273C-0.791642 20.1974 0.122468 23.6072 2.78827 25.1506L22.2694 36.3963C24.9395 37.9354 28.3493 37.0213 29.8927 34.3555C31.4318 31.6854 30.5177 28.2756 27.8519 26.7322V26.7365Z" fill="#4285F4"/>
<path fill-rule="evenodd" clip-rule="evenodd" d="M40.8791 26.9109L60.3603 15.6652C63.0303 14.1261 66.4402 15.0402 67.9835 17.706C69.5226 20.3761 68.6085 23.7859 65.9427 25.3293L46.4615 36.5749C43.7915 38.114 40.3816 37.1999 38.8383 34.5341C37.2992 31.8641 38.2133 28.4542 40.8791 26.9109Z" fill="#FCBC05"/>
<path fill-rule="evenodd" clip-rule="evenodd" d="M46.6358 4.3302L66.117 15.5759C68.787 17.115 69.7012 20.5291 68.1578 23.1991C66.6187 25.8692 63.2046 26.7833 60.5346 25.2399L41.0534 13.9943C38.3833 12.4551 37.4692 9.04105 39.0126 6.371C40.5517 3.70095 43.9658 2.78684 46.6358 4.3302Z" fill="#0D9D58"/>
<path d="M341.175 42.1994H328.65C321.583 39.0617 316.086 33.6663 312.196 26.0771C312.234 25.9495 312.247 25.8135 312.225 25.6732C311.315 18.8577 311.082 10.6137 311.575 2.45902C311.609 1.9148 311.192 1.44712 310.648 1.41311C310.138 1.37909 309.636 1.79576 309.602 2.33997C309.232 8.47089 309.266 14.6613 309.687 20.2778C308.82 17.8798 308.076 15.3161 307.459 12.578C307.446 12.5227 307.429 12.4717 307.408 12.4249C307.702 8.85354 308.263 5.11206 309.088 1.19627C309.202 0.66056 308.858 0.137604 308.322 0.0228084C307.791 -0.0919869 307.264 0.252399 307.153 0.783858C306.571 3.53469 306.124 6.20474 305.797 8.79402C305.61 8.8833 305.457 9.03211 305.359 9.21068C304.385 9.04486 303.412 9.03211 302.442 9.18092C302.387 9.0066 302.281 8.85354 302.14 8.73449C301.758 6.05594 301.184 3.38163 300.41 0.71158C300.261 0.188624 299.713 -0.113245 299.185 0.0398151C298.662 0.192875 298.361 0.741342 298.514 1.2643C299.555 4.84846 300.223 8.44538 300.529 12.0508C300.533 12.1188 300.537 12.1826 300.546 12.2506C300.546 12.2634 300.542 12.2761 300.537 12.2889C300.525 12.3399 300.512 12.3909 300.508 12.4462C300.176 16.3492 299.275 20.0057 297.812 23.407C298.407 17.4759 298.586 10.4267 298.344 2.36123C298.327 1.81702 297.88 1.3876 297.323 1.4046C296.779 1.42161 296.35 1.87654 296.367 2.42075C296.677 12.7863 296.29 21.4428 295.214 28.1391C295.206 28.1944 295.206 28.2497 295.206 28.3007C291.745 33.6876 286.647 38.3304 279.93 42.1867H269.224C268.773 42.1867 268.408 42.5523 268.408 43.003C268.408 43.4537 268.773 43.8193 269.224 43.8193H341.183C341.634 43.8193 342 43.4537 342 43.003C342 42.5523 341.634 42.1867 341.183 42.1867L341.175 42.1994ZM305.389 23.2582C305.529 24.9886 305.746 26.6766 306.039 28.322C305.614 27.2165 305.223 26.1196 304.874 25.0269C305.057 24.4359 305.231 23.8449 305.393 23.2582H305.389ZM302.51 12.0423C302.523 12.2081 302.532 12.3697 302.544 12.5355C302.557 12.7013 302.57 12.8671 302.578 13.0287H305.146C304.972 15.7498 304.538 18.5304 303.837 21.3747C303.254 19.0108 302.859 16.6851 302.651 14.402C302.608 13.9428 302.578 13.4836 302.549 13.0287C302.54 12.8629 302.527 12.6971 302.519 12.5355C302.51 12.3697 302.506 12.2039 302.502 12.0423H302.51ZM302.285 23.271C302.446 23.8535 302.612 24.4359 302.795 25.0227C302.323 26.498 301.787 27.9861 301.175 29.4912C301.66 27.4206 302.03 25.3458 302.281 23.2752L302.285 23.271ZM294.538 42.1994H283.718C291.975 36.8381 297.553 30.1629 300.401 22.2421C299.687 28.8959 297.731 35.5583 294.538 42.1994ZM303.552 42.1994C303.662 41.2683 303.76 40.3117 303.845 39.3211C303.93 40.3117 304.032 41.2683 304.139 42.1994H303.548H303.552ZM310.797 42.1994H305.134C304.687 38.4495 304.428 34.236 304.351 29.4487C304.343 29.4274 304.334 29.4061 304.326 29.3891C304.33 29.0405 304.334 28.6834 304.338 28.3305C304.334 27.7905 304.33 27.2463 304.326 26.6936C304.326 26.1621 304.326 25.6307 304.326 25.0822C304.326 24.8143 304.109 24.5932 303.841 24.589C303.573 24.5932 303.356 24.8143 303.356 25.0822C303.356 25.6519 303.356 26.2046 303.356 26.7573C303.356 27.2888 303.352 27.8118 303.344 28.3305C303.344 28.6706 303.348 29.015 303.356 29.3509C303.348 29.3721 303.344 29.3891 303.335 29.4104C303.259 34.2148 302.999 38.441 302.553 42.2037H296.724C296.936 41.753 301.779 33.4112 303.335 29.4104C303.339 29.0575 303.344 28.6919 303.348 28.3347C303.344 27.7948 303.339 27.2505 303.335 26.6978C303.335 26.1621 303.335 25.6307 303.335 25.0822C303.335 24.8101 303.556 24.589 303.828 24.589C303.828 24.589 303.833 24.589 303.837 24.589C303.837 24.589 303.841 24.589 303.845 24.589C304.117 24.589 304.338 24.8101 304.338 25.0822C304.338 25.6094 304.338 26.1196 304.338 26.634C304.338 27.208 304.334 27.7735 304.326 28.3347C304.326 28.7089 304.33 29.0873 304.338 29.4529C305.861 33.3177 310.746 42.0889 310.818 42.2037H310.784L310.797 42.1994ZM313.165 42.1994H313.071C312.833 41.787 312.604 41.3661 312.383 40.9452C309.02 34.5762 307.289 27.3101 307.179 19.0491C310.648 29.7845 316.383 37.5353 324.317 42.2037H313.169L313.165 42.1994Z" fill="#676C72"/>
</svg>
