<svg width="17" height="17" viewBox="0 0 17 17" fill="none" xmlns="http://www.w3.org/2000/svg">
<path d="M3.5415 5.66663C3.54887 3.79352 3.61801 2.79151 4.26676 2.14276C4.99289 1.41663 6.16158 1.41663 8.49899 1.41663C10.8363 1.41663 12.005 1.41663 12.7311 2.14276C13.3799 2.79151 13.449 3.79352 13.4564 5.66663M3.5415 11.3333C3.54887 13.2064 3.61801 14.2084 4.26676 14.8572C4.99289 15.5833 6.16158 15.5833 8.49899 15.5833C10.8363 15.5833 12.005 15.5833 12.7311 14.8572C13.3799 14.2084 13.449 13.2064 13.4564 11.3333" stroke="#F7F7F7" stroke-width="1.5" stroke-linecap="round"/>
<path d="M7.7915 13.4584H9.20817" stroke="#F7F7F7" stroke-width="1.5" stroke-linecap="round" stroke-linejoin="round"/>
<path d="M11.3335 7.08337L12.2023 7.83222C12.5676 8.14701 12.7502 8.30447 12.7502 8.50004C12.7502 8.69561 12.5676 8.85307 12.2023 9.16786L11.3335 9.91671" stroke="#F7F7F7" stroke-width="1.5" stroke-linecap="round" stroke-linejoin="round"/>
<path d="M5.66667 7.08337L4.79787 7.83222C4.43262 8.14701 4.25 8.30447 4.25 8.50004C4.25 8.69561 4.43262 8.85307 4.79787 9.16786L5.66667 9.91671" stroke="#F7F7F7" stroke-width="1.5" stroke-linecap="round" stroke-linejoin="round"/>
<path d="M9.20817 6.375L7.7915 10.625" stroke="#F7F7F7" stroke-width="1.5" stroke-linecap="round" stroke-linejoin="round"/>
</svg>
