<svg width="168" height="168" viewBox="0 0 168 168" fill="none" xmlns="http://www.w3.org/2000/svg">
<mask id="mask0_501_4196" style="mask-type:luminance" maskUnits="userSpaceOnUse" x="0" y="0" width="168" height="168">
<path d="M84 168C130.392 168 168 130.392 168 84C168 37.6081 130.392 0 84 0C37.6081 0 0 37.6081 0 84C0 130.392 37.6081 168 84 168Z" fill="white"/>
</mask>
<g mask="url(#mask0_501_4196)">
<path d="M83.9976 167.998C130.389 167.998 167.998 130.39 167.998 83.9977C167.998 37.6058 130.389 -0.00231934 83.9976 -0.00231934C37.6056 -0.00231934 -0.00244141 37.6058 -0.00244141 83.9977C-0.00244141 130.39 37.6056 167.998 83.9976 167.998Z" fill="black"/>
<path d="M216.736 -7.26038H-48.7412V191.849H216.736V-7.26038Z" fill="#2B83FC"/>
<path d="M17.6294 -7.26038H-15.5547V25.9237H17.6294V-7.26038Z" stroke="#8AB0DD" stroke-width="0.33" stroke-miterlimit="10"/>
<path d="M1.03611 25.9261C10.2003 25.9261 17.6293 18.4971 17.6293 9.33286C17.6293 0.16867 10.2003 -7.26038 1.03611 -7.26038C-8.12808 -7.26038 -15.5571 0.16867 -15.5571 9.33286C-15.5571 18.4971 -8.12808 25.9261 1.03611 25.9261Z" stroke="#8AB0DD" stroke-width="0.33" stroke-miterlimit="10"/>
<path d="M-15.5547 9.33289H17.6294" stroke="#8AB0DD" stroke-width="0.33" stroke-miterlimit="10"/>
<path d="M1.03613 25.9261V-7.26038" stroke="#8AB0DD" stroke-width="0.33" stroke-miterlimit="10"/>
<path d="M50.8135 -7.26038H17.6294V25.9237H50.8135V-7.26038Z" stroke="#8AB0DD" stroke-width="0.33" stroke-miterlimit="10"/>
<path d="M34.2226 25.9261C43.3868 25.9261 50.8159 18.4971 50.8159 9.33286C50.8159 0.16867 43.3868 -7.26038 34.2226 -7.26038C25.0584 -7.26038 17.6294 0.16867 17.6294 9.33286C17.6294 18.4971 25.0584 25.9261 34.2226 25.9261Z" stroke="#8AB0DD" stroke-width="0.33" stroke-miterlimit="10"/>
<path d="M17.6294 9.33289H50.8135" stroke="#8AB0DD" stroke-width="0.33" stroke-miterlimit="10"/>
<path d="M34.2227 25.9261V-7.26038" stroke="#8AB0DD" stroke-width="0.33" stroke-miterlimit="10"/>
<path d="M83.9976 -7.26038H50.8135V25.9237H83.9976V-7.26038Z" stroke="#8AB0DD" stroke-width="0.33" stroke-miterlimit="10"/>
<path d="M67.4067 25.9261C76.5709 25.9261 84 18.4971 84 9.33286C84 0.16867 76.5709 -7.26038 67.4067 -7.26038C58.2425 -7.26038 50.8135 0.16867 50.8135 9.33286C50.8135 18.4971 58.2425 25.9261 67.4067 25.9261Z" stroke="#8AB0DD" stroke-width="0.33" stroke-miterlimit="10"/>
<path d="M50.8135 9.33289H83.9976" stroke="#8AB0DD" stroke-width="0.33" stroke-miterlimit="10"/>
<path d="M67.4067 25.9261V-7.26038" stroke="#8AB0DD" stroke-width="0.33" stroke-miterlimit="10"/>
<path d="M117.182 -7.26038H83.9976V25.9237H117.182V-7.26038Z" stroke="#8AB0DD" stroke-width="0.33" stroke-miterlimit="10"/>
<path d="M100.591 25.9261C109.755 25.9261 117.184 18.4971 117.184 9.33286C117.184 0.16867 109.755 -7.26038 100.591 -7.26038C91.4266 -7.26038 83.9976 0.16867 83.9976 9.33286C83.9976 18.4971 91.4266 25.9261 100.591 25.9261Z" stroke="#8AB0DD" stroke-width="0.33" stroke-miterlimit="10"/>
<path d="M83.9976 9.33289H117.184" stroke="#8AB0DD" stroke-width="0.33" stroke-miterlimit="10"/>
<path d="M100.591 25.9261V-7.26038" stroke="#8AB0DD" stroke-width="0.33" stroke-miterlimit="10"/>
<path d="M150.368 -7.26038H117.184V25.9237H150.368V-7.26038Z" stroke="#8AB0DD" stroke-width="0.33" stroke-miterlimit="10"/>
<path d="M133.775 25.9261C142.939 25.9261 150.368 18.4971 150.368 9.33286C150.368 0.16867 142.939 -7.26038 133.775 -7.26038C124.611 -7.26038 117.182 0.16867 117.182 9.33286C117.182 18.4971 124.611 25.9261 133.775 25.9261Z" stroke="#8AB0DD" stroke-width="0.33" stroke-miterlimit="10"/>
<path d="M117.184 9.33289H150.368" stroke="#8AB0DD" stroke-width="0.33" stroke-miterlimit="10"/>
<path d="M133.775 25.9261V-7.26038" stroke="#8AB0DD" stroke-width="0.33" stroke-miterlimit="10"/>
<path d="M183.552 -7.26038H150.368V25.9237H183.552V-7.26038Z" stroke="#8AB0DD" stroke-width="0.33" stroke-miterlimit="10"/>
<path d="M166.961 25.9261C176.126 25.9261 183.555 18.4971 183.555 9.33286C183.555 0.16867 176.126 -7.26038 166.961 -7.26038C157.797 -7.26038 150.368 0.16867 150.368 9.33286C150.368 18.4971 157.797 25.9261 166.961 25.9261Z" stroke="#8AB0DD" stroke-width="0.33" stroke-miterlimit="10"/>
<path d="M150.368 9.33289H183.552" stroke="#8AB0DD" stroke-width="0.33" stroke-miterlimit="10"/>
<path d="M166.961 25.9261V-7.26038" stroke="#8AB0DD" stroke-width="0.33" stroke-miterlimit="10"/>
<path d="M17.6294 25.9261H-15.5547V59.1102H17.6294V25.9261Z" stroke="#8AB0DD" stroke-width="0.33" stroke-miterlimit="10"/>
<path d="M1.03611 59.1102C10.2003 59.1102 17.6293 51.6811 17.6293 42.5169C17.6293 33.3528 10.2003 25.9237 1.03611 25.9237C-8.12808 25.9237 -15.5571 33.3528 -15.5571 42.5169C-15.5571 51.6811 -8.12808 59.1102 1.03611 59.1102Z" stroke="#8AB0DD" stroke-width="0.33" stroke-miterlimit="10"/>
<path d="M-15.5547 42.517H17.6294" stroke="#8AB0DD" stroke-width="0.33" stroke-miterlimit="10"/>
<path d="M1.03613 59.1102V25.9261" stroke="#8AB0DD" stroke-width="0.33" stroke-miterlimit="10"/>
<path d="M50.8135 25.9261H17.6294V59.1102H50.8135V25.9261Z" stroke="#8AB0DD" stroke-width="0.33" stroke-miterlimit="10"/>
<path d="M34.2226 59.1102C43.3868 59.1102 50.8159 51.6811 50.8159 42.5169C50.8159 33.3528 43.3868 25.9237 34.2226 25.9237C25.0584 25.9237 17.6294 33.3528 17.6294 42.5169C17.6294 51.6811 25.0584 59.1102 34.2226 59.1102Z" stroke="#8AB0DD" stroke-width="0.33" stroke-miterlimit="10"/>
<path d="M17.6294 42.517H50.8135" stroke="#8AB0DD" stroke-width="0.33" stroke-miterlimit="10"/>
<path d="M34.2227 59.1102V25.9261" stroke="#8AB0DD" stroke-width="0.33" stroke-miterlimit="10"/>
<path d="M83.9976 25.9261H50.8135V59.1102H83.9976V25.9261Z" stroke="#8AB0DD" stroke-width="0.33" stroke-miterlimit="10"/>
<path d="M67.4067 59.1102C76.5709 59.1102 84 51.6811 84 42.5169C84 33.3528 76.5709 25.9237 67.4067 25.9237C58.2425 25.9237 50.8135 33.3528 50.8135 42.5169C50.8135 51.6811 58.2425 59.1102 67.4067 59.1102Z" stroke="#8AB0DD" stroke-width="0.33" stroke-miterlimit="10"/>
<path d="M50.8135 42.517H83.9976" stroke="#8AB0DD" stroke-width="0.33" stroke-miterlimit="10"/>
<path d="M67.4067 59.1102V25.9261" stroke="#8AB0DD" stroke-width="0.33" stroke-miterlimit="10"/>
<path d="M117.182 25.9261H83.9976V59.1102H117.182V25.9261Z" stroke="#8AB0DD" stroke-width="0.33" stroke-miterlimit="10"/>
<path d="M100.591 59.1102C109.755 59.1102 117.184 51.6811 117.184 42.5169C117.184 33.3528 109.755 25.9237 100.591 25.9237C91.4266 25.9237 83.9976 33.3528 83.9976 42.5169C83.9976 51.6811 91.4266 59.1102 100.591 59.1102Z" stroke="#8AB0DD" stroke-width="0.33" stroke-miterlimit="10"/>
<path d="M83.9976 42.517H117.184" stroke="#8AB0DD" stroke-width="0.33" stroke-miterlimit="10"/>
<path d="M100.591 25.9261V59.1102" stroke="#8AB0DD" stroke-width="0.33" stroke-miterlimit="10"/>
<path d="M150.368 25.9261H117.184V59.1102H150.368V25.9261Z" stroke="#8AB0DD" stroke-width="0.33" stroke-miterlimit="10"/>
<path d="M133.775 59.1102C142.939 59.1102 150.368 51.6811 150.368 42.5169C150.368 33.3528 142.939 25.9237 133.775 25.9237C124.611 25.9237 117.182 33.3528 117.182 42.5169C117.182 51.6811 124.611 59.1102 133.775 59.1102Z" stroke="#8AB0DD" stroke-width="0.33" stroke-miterlimit="10"/>
<path d="M117.184 42.517H150.368" stroke="#8AB0DD" stroke-width="0.33" stroke-miterlimit="10"/>
<path d="M133.775 59.1102V25.9261" stroke="#8AB0DD" stroke-width="0.33" stroke-miterlimit="10"/>
<path d="M183.552 25.9261H150.368V59.1102H183.552V25.9261Z" stroke="#8AB0DD" stroke-width="0.33" stroke-miterlimit="10"/>
<path d="M166.961 59.1102C176.126 59.1102 183.555 51.6811 183.555 42.5169C183.555 33.3528 176.126 25.9237 166.961 25.9237C157.797 25.9237 150.368 33.3528 150.368 42.5169C150.368 51.6811 157.797 59.1102 166.961 59.1102Z" stroke="#8AB0DD" stroke-width="0.33" stroke-miterlimit="10"/>
<path d="M150.368 42.517H183.552" stroke="#8AB0DD" stroke-width="0.33" stroke-miterlimit="10"/>
<path d="M166.961 59.1102V25.9261" stroke="#8AB0DD" stroke-width="0.33" stroke-miterlimit="10"/>
<path d="M17.6294 59.1102H-15.5547V92.2943H17.6294V59.1102Z" stroke="#8AB0DD" stroke-width="0.33" stroke-miterlimit="10"/>
<path d="M1.03611 92.2967C10.2003 92.2967 17.6293 84.8677 17.6293 75.7035C17.6293 66.5393 10.2003 59.1102 1.03611 59.1102C-8.12808 59.1102 -15.5571 66.5393 -15.5571 75.7035C-15.5571 84.8677 -8.12808 92.2967 1.03611 92.2967Z" stroke="#8AB0DD" stroke-width="0.33" stroke-miterlimit="10"/>
<path d="M-15.5547 75.7035H17.6294" stroke="#8AB0DD" stroke-width="0.33" stroke-miterlimit="10"/>
<path d="M1.03613 92.2943V59.1102" stroke="#8AB0DD" stroke-width="0.33" stroke-miterlimit="10"/>
<path d="M50.8135 59.1102H17.6294V92.2943H50.8135V59.1102Z" stroke="#8AB0DD" stroke-width="0.33" stroke-miterlimit="10"/>
<path d="M34.2226 92.2967C43.3868 92.2967 50.8159 84.8677 50.8159 75.7035C50.8159 66.5393 43.3868 59.1102 34.2226 59.1102C25.0584 59.1102 17.6294 66.5393 17.6294 75.7035C17.6294 84.8677 25.0584 92.2967 34.2226 92.2967Z" stroke="#8AB0DD" stroke-width="0.33" stroke-miterlimit="10"/>
<path d="M17.6294 75.7035H50.8135" stroke="#8AB0DD" stroke-width="0.33" stroke-miterlimit="10"/>
<path d="M34.2227 92.2943V59.1102" stroke="#8AB0DD" stroke-width="0.33" stroke-miterlimit="10"/>
<path d="M83.9976 59.1102H50.8135V92.2943H83.9976V59.1102Z" stroke="#8AB0DD" stroke-width="0.33" stroke-miterlimit="10"/>
<path d="M67.4067 92.2967C76.5709 92.2967 84 84.8677 84 75.7035C84 66.5393 76.5709 59.1102 67.4067 59.1102C58.2425 59.1102 50.8135 66.5393 50.8135 75.7035C50.8135 84.8677 58.2425 92.2967 67.4067 92.2967Z" stroke="#8AB0DD" stroke-width="0.33" stroke-miterlimit="10"/>
<path d="M50.8135 75.7035H83.9976" stroke="#8AB0DD" stroke-width="0.33" stroke-miterlimit="10"/>
<path d="M67.4067 92.2943V59.1102" stroke="#8AB0DD" stroke-width="0.33" stroke-miterlimit="10"/>
<path d="M117.182 59.1102H83.9976V92.2943H117.182V59.1102Z" stroke="#8AB0DD" stroke-width="0.33" stroke-miterlimit="10"/>
<path d="M100.591 92.2967C109.755 92.2967 117.184 84.8677 117.184 75.7035C117.184 66.5393 109.755 59.1102 100.591 59.1102C91.4266 59.1102 83.9976 66.5393 83.9976 75.7035C83.9976 84.8677 91.4266 92.2967 100.591 92.2967Z" stroke="#8AB0DD" stroke-width="0.33" stroke-miterlimit="10"/>
<path d="M83.9976 75.7035H117.184" stroke="#8AB0DD" stroke-width="0.33" stroke-miterlimit="10"/>
<path d="M100.591 92.2943V59.1102" stroke="#8AB0DD" stroke-width="0.33" stroke-miterlimit="10"/>
<path d="M150.368 59.1102H117.184V92.2943H150.368V59.1102Z" stroke="#8AB0DD" stroke-width="0.33" stroke-miterlimit="10"/>
<path d="M133.775 92.2967C142.939 92.2967 150.368 84.8677 150.368 75.7035C150.368 66.5393 142.939 59.1102 133.775 59.1102C124.611 59.1102 117.182 66.5393 117.182 75.7035C117.182 84.8677 124.611 92.2967 133.775 92.2967Z" stroke="#8AB0DD" stroke-width="0.33" stroke-miterlimit="10"/>
<path d="M117.184 75.7035H150.368" stroke="#8AB0DD" stroke-width="0.33" stroke-miterlimit="10"/>
<path d="M133.775 92.2943V59.1102" stroke="#8AB0DD" stroke-width="0.33" stroke-miterlimit="10"/>
<path d="M183.552 59.1102H150.368V92.2943H183.552V59.1102Z" stroke="#8AB0DD" stroke-width="0.33" stroke-miterlimit="10"/>
<path d="M166.961 92.2967C176.126 92.2967 183.555 84.8677 183.555 75.7035C183.555 66.5393 176.126 59.1102 166.961 59.1102C157.797 59.1102 150.368 66.5393 150.368 75.7035C150.368 84.8677 157.797 92.2967 166.961 92.2967Z" stroke="#8AB0DD" stroke-width="0.33" stroke-miterlimit="10"/>
<path d="M150.368 75.7035H183.552" stroke="#8AB0DD" stroke-width="0.33" stroke-miterlimit="10"/>
<path d="M166.961 92.2943V59.1102" stroke="#8AB0DD" stroke-width="0.33" stroke-miterlimit="10"/>
<path d="M17.6294 92.2943H-15.5547V125.478H17.6294V92.2943Z" stroke="#8AB0DD" stroke-width="0.33" stroke-miterlimit="10"/>
<path d="M1.03611 125.481C10.2003 125.481 17.6293 118.052 17.6293 108.888C17.6293 99.7234 10.2003 92.2943 1.03611 92.2943C-8.12808 92.2943 -15.5571 99.7234 -15.5571 108.888C-15.5571 118.052 -8.12808 125.481 1.03611 125.481Z" stroke="#8AB0DD" stroke-width="0.33" stroke-miterlimit="10"/>
<path d="M-15.5547 108.888H17.6294" stroke="#8AB0DD" stroke-width="0.33" stroke-miterlimit="10"/>
<path d="M1.03613 125.478V92.2943" stroke="#8AB0DD" stroke-width="0.33" stroke-miterlimit="10"/>
<path d="M50.8135 92.2943H17.6294V125.478H50.8135V92.2943Z" stroke="#8AB0DD" stroke-width="0.33" stroke-miterlimit="10"/>
<path d="M34.2226 125.481C43.3868 125.481 50.8159 118.052 50.8159 108.888C50.8159 99.7234 43.3868 92.2943 34.2226 92.2943C25.0584 92.2943 17.6294 99.7234 17.6294 108.888C17.6294 118.052 25.0584 125.481 34.2226 125.481Z" stroke="#8AB0DD" stroke-width="0.33" stroke-miterlimit="10"/>
<path d="M17.6294 108.888H50.8135" stroke="#8AB0DD" stroke-width="0.33" stroke-miterlimit="10"/>
<path d="M34.2227 125.478V92.2943" stroke="#8AB0DD" stroke-width="0.33" stroke-miterlimit="10"/>
<path d="M83.9976 92.2943H50.8135V125.478H83.9976V92.2943Z" stroke="#8AB0DD" stroke-width="0.33" stroke-miterlimit="10"/>
<path d="M67.4067 125.481C76.5709 125.481 84 118.052 84 108.888C84 99.7234 76.5709 92.2943 67.4067 92.2943C58.2425 92.2943 50.8135 99.7234 50.8135 108.888C50.8135 118.052 58.2425 125.481 67.4067 125.481Z" stroke="#8AB0DD" stroke-width="0.33" stroke-miterlimit="10"/>
<path d="M50.8135 108.888H83.9976" stroke="#8AB0DD" stroke-width="0.33" stroke-miterlimit="10"/>
<path d="M67.4067 125.478V92.2943" stroke="#8AB0DD" stroke-width="0.33" stroke-miterlimit="10"/>
<path d="M117.182 92.2943H83.9976V125.478H117.182V92.2943Z" stroke="#8AB0DD" stroke-width="0.33" stroke-miterlimit="10"/>
<path d="M100.591 125.481C109.755 125.481 117.184 118.052 117.184 108.888C117.184 99.7234 109.755 92.2943 100.591 92.2943C91.4266 92.2943 83.9976 99.7234 83.9976 108.888C83.9976 118.052 91.4266 125.481 100.591 125.481Z" stroke="#8AB0DD" stroke-width="0.33" stroke-miterlimit="10"/>
<path d="M83.9976 108.888H117.184" stroke="#8AB0DD" stroke-width="0.33" stroke-miterlimit="10"/>
<path d="M100.591 125.478V92.2943" stroke="#8AB0DD" stroke-width="0.33" stroke-miterlimit="10"/>
<path d="M150.368 92.2943H117.184V125.478H150.368V92.2943Z" stroke="#8AB0DD" stroke-width="0.33" stroke-miterlimit="10"/>
<path d="M133.775 125.481C142.939 125.481 150.368 118.052 150.368 108.888C150.368 99.7234 142.939 92.2943 133.775 92.2943C124.611 92.2943 117.182 99.7234 117.182 108.888C117.182 118.052 124.611 125.481 133.775 125.481Z" stroke="#8AB0DD" stroke-width="0.33" stroke-miterlimit="10"/>
<path d="M117.184 108.888H150.368" stroke="#8AB0DD" stroke-width="0.33" stroke-miterlimit="10"/>
<path d="M133.775 125.478V92.2943" stroke="#8AB0DD" stroke-width="0.33" stroke-miterlimit="10"/>
<path d="M183.552 92.2943H150.368V125.478H183.552V92.2943Z" stroke="#8AB0DD" stroke-width="0.33" stroke-miterlimit="10"/>
<path d="M166.961 125.481C176.126 125.481 183.555 118.052 183.555 108.888C183.555 99.7234 176.126 92.2943 166.961 92.2943C157.797 92.2943 150.368 99.7234 150.368 108.888C150.368 118.052 157.797 125.481 166.961 125.481Z" stroke="#8AB0DD" stroke-width="0.33" stroke-miterlimit="10"/>
<path d="M150.368 108.888H183.552" stroke="#8AB0DD" stroke-width="0.33" stroke-miterlimit="10"/>
<path d="M166.961 125.478V92.2943" stroke="#8AB0DD" stroke-width="0.33" stroke-miterlimit="10"/>
<path d="M183.552 125.478H150.368V142.072H183.552V125.478Z" stroke="#8AB0DD" stroke-width="0.33" stroke-miterlimit="10"/>
<path d="M150.368 142.072C150.42 137.706 152.192 133.536 155.297 130.467C158.403 127.398 162.594 125.677 166.96 125.677C171.327 125.677 175.517 127.398 178.623 130.467C181.729 133.536 183.5 137.706 183.552 142.072" stroke="#8AB0DD" stroke-width="0.33" stroke-miterlimit="10"/>
<path d="M150.368 142.072H183.552" stroke="#8AB0DD" stroke-width="0.33" stroke-miterlimit="10"/>
<path d="M166.961 142.072V125.478" stroke="#8AB0DD" stroke-width="0.33" stroke-miterlimit="10"/>
<path d="M150.368 125.478H117.184V142.072H150.368V125.478Z" stroke="#8AB0DD" stroke-width="0.33" stroke-miterlimit="10"/>
<path d="M117.184 142.072C117.236 137.706 119.007 133.536 122.113 130.467C125.219 127.398 129.41 125.677 133.776 125.677C138.143 125.677 142.333 127.398 145.439 130.467C148.545 133.536 150.316 137.706 150.368 142.072" stroke="#8AB0DD" stroke-width="0.33" stroke-miterlimit="10"/>
<path d="M117.184 142.072H150.368" stroke="#8AB0DD" stroke-width="0.33" stroke-miterlimit="10"/>
<path d="M133.775 142.072V125.478" stroke="#8AB0DD" stroke-width="0.33" stroke-miterlimit="10"/>
<path d="M117.182 125.478H83.9976V142.072H117.182V125.478Z" stroke="#8AB0DD" stroke-width="0.33" stroke-miterlimit="10"/>
<path d="M83.9995 142.072C84.0518 137.706 85.8229 133.536 88.9288 130.467C92.0347 127.398 96.2252 125.677 100.592 125.677C104.958 125.677 109.148 127.398 112.254 130.467C115.36 133.536 117.131 137.706 117.184 142.072" stroke="#8AB0DD" stroke-width="0.33" stroke-miterlimit="10"/>
<path d="M83.9976 142.072H117.184" stroke="#8AB0DD" stroke-width="0.33" stroke-miterlimit="10"/>
<path d="M100.591 142.072V125.478" stroke="#8AB0DD" stroke-width="0.33" stroke-miterlimit="10"/>
<path d="M83.9976 125.478H50.8135V142.072H83.9976V125.478Z" stroke="#8AB0DD" stroke-width="0.33" stroke-miterlimit="10"/>
<path d="M50.8135 142.072C50.8135 137.671 52.5617 133.45 55.6735 130.338C58.7854 127.227 63.0059 125.478 67.4067 125.478C71.8075 125.478 76.0281 127.227 79.1399 130.338C82.2517 133.45 84 137.671 84 142.072" stroke="#8AB0DD" stroke-width="0.33" stroke-miterlimit="10"/>
<path d="M50.8135 142.072H83.9976" stroke="#8AB0DD" stroke-width="0.33" stroke-miterlimit="10"/>
<path d="M67.4067 142.072V125.478" stroke="#8AB0DD" stroke-width="0.33" stroke-miterlimit="10"/>
<path d="M50.8135 125.478H17.6294V142.072H50.8135V125.478Z" stroke="#8AB0DD" stroke-width="0.33" stroke-miterlimit="10"/>
<path d="M17.6294 142.072C17.6816 137.706 19.4527 133.536 22.5587 130.467C25.6646 127.398 29.855 125.677 34.2214 125.677C38.5878 125.677 42.7783 127.398 45.8842 130.467C48.9902 133.536 50.7612 137.706 50.8135 142.072" stroke="#8AB0DD" stroke-width="0.33" stroke-miterlimit="10"/>
<path d="M17.6294 142.072H50.8135" stroke="#8AB0DD" stroke-width="0.33" stroke-miterlimit="10"/>
<path d="M34.2227 142.072V125.478" stroke="#8AB0DD" stroke-width="0.33" stroke-miterlimit="10"/>
<path d="M17.6294 125.478H-15.5547V142.072H17.6294V125.478Z" stroke="#8AB0DD" stroke-width="0.33" stroke-miterlimit="10"/>
<path d="M-15.5547 142.072C-15.5024 137.706 -13.7313 133.536 -10.6254 130.467C-7.51948 127.398 -3.32904 125.677 1.03736 125.677C5.40377 125.677 9.5942 127.398 12.7001 130.467C15.8061 133.536 17.5772 137.706 17.6294 142.072" stroke="#8AB0DD" stroke-width="0.33" stroke-miterlimit="10"/>
<path d="M-15.5547 142.072H17.6294" stroke="#8AB0DD" stroke-width="0.33" stroke-miterlimit="10"/>
<path d="M1.03613 142.072V125.478" stroke="#8AB0DD" stroke-width="0.33" stroke-miterlimit="10"/>
<path d="M150.368 191.849H183.552V158.665H150.368V191.849Z" stroke="#8AB0DD" stroke-width="0.33" stroke-miterlimit="10"/>
<path d="M166.961 191.849C176.126 191.849 183.555 184.42 183.555 175.256C183.555 166.092 176.126 158.662 166.961 158.662C157.797 158.662 150.368 166.092 150.368 175.256C150.368 184.42 157.797 191.849 166.961 191.849Z" stroke="#8AB0DD" stroke-width="0.33" stroke-miterlimit="10"/>
<path d="M166.961 158.665V191.849" stroke="#8AB0DD" stroke-width="0.33" stroke-miterlimit="10"/>
<path d="M117.184 191.849H150.368V158.665H117.184V191.849Z" stroke="#8AB0DD" stroke-width="0.33" stroke-miterlimit="10"/>
<path d="M133.775 191.849C142.939 191.849 150.368 184.42 150.368 175.256C150.368 166.092 142.939 158.662 133.775 158.662C124.611 158.662 117.182 166.092 117.182 175.256C117.182 184.42 124.611 191.849 133.775 191.849Z" stroke="#8AB0DD" stroke-width="0.33" stroke-miterlimit="10"/>
<path d="M133.775 158.665V191.849" stroke="#8AB0DD" stroke-width="0.33" stroke-miterlimit="10"/>
<path d="M83.9975 191.849H117.182V158.665H83.9975V191.849Z" stroke="#8AB0DD" stroke-width="0.33" stroke-miterlimit="10"/>
<path d="M100.591 191.849C109.755 191.849 117.184 184.42 117.184 175.256C117.184 166.092 109.755 158.662 100.591 158.662C91.4266 158.662 83.9976 166.092 83.9976 175.256C83.9976 184.42 91.4266 191.849 100.591 191.849Z" stroke="#8AB0DD" stroke-width="0.33" stroke-miterlimit="10"/>
<path d="M100.591 158.665V191.849" stroke="#8AB0DD" stroke-width="0.33" stroke-miterlimit="10"/>
<path d="M50.8154 191.849H83.9995V158.665H50.8154L50.8154 191.849Z" stroke="#8AB0DD" stroke-width="0.33" stroke-miterlimit="10"/>
<path d="M67.4067 191.849C76.5709 191.849 84 184.42 84 175.256C84 166.092 76.5709 158.662 67.4067 158.662C58.2425 158.662 50.8135 166.092 50.8135 175.256C50.8135 184.42 58.2425 191.849 67.4067 191.849Z" stroke="#8AB0DD" stroke-width="0.33" stroke-miterlimit="10"/>
<path d="M67.4067 158.665V191.849" stroke="#8AB0DD" stroke-width="0.33" stroke-miterlimit="10"/>
<path d="M17.6294 191.849H50.8135L50.8135 158.665H17.6294L17.6294 191.849Z" stroke="#8AB0DD" stroke-width="0.33" stroke-miterlimit="10"/>
<path d="M34.2226 191.849C43.3868 191.849 50.8159 184.42 50.8159 175.256C50.8159 166.092 43.3868 158.662 34.2226 158.662C25.0584 158.662 17.6294 166.092 17.6294 175.256C17.6294 184.42 25.0584 191.849 34.2226 191.849Z" stroke="#8AB0DD" stroke-width="0.33" stroke-miterlimit="10"/>
<path d="M34.2227 158.665V191.849" stroke="#8AB0DD" stroke-width="0.33" stroke-miterlimit="10"/>
<path d="M-15.5547 191.849H17.6294L17.6294 158.665H-15.5547L-15.5547 191.849Z" stroke="#8AB0DD" stroke-width="0.33" stroke-miterlimit="10"/>
<path d="M1.03611 191.849C10.2003 191.849 17.6293 184.42 17.6293 175.256C17.6293 166.092 10.2003 158.662 1.03611 158.662C-8.12808 158.662 -15.5571 166.092 -15.5571 175.256C-15.5571 184.42 -8.12808 191.849 1.03611 191.849Z" stroke="#8AB0DD" stroke-width="0.33" stroke-miterlimit="10"/>
<path d="M1.03613 158.665V191.849" stroke="#8AB0DD" stroke-width="0.33" stroke-miterlimit="10"/>
<path d="M-15.5547 158.665H17.6294L17.6294 142.072H-15.5547V158.665Z" stroke="#8AB0DD" stroke-width="0.33" stroke-miterlimit="10"/>
<path d="M17.6291 142.072C17.6554 144.267 17.2457 146.446 16.4236 148.482C15.6016 150.518 14.3836 152.371 12.8403 153.933C11.297 155.495 9.45898 156.735 7.43288 157.581C5.40678 158.428 3.23285 158.863 1.03709 158.863C-1.15868 158.863 -3.33261 158.428 -5.35871 157.581C-7.38481 156.735 -9.22278 155.495 -10.7661 153.933C-12.3094 152.371 -13.5274 150.518 -14.3494 148.482C-15.1715 146.446 -15.5812 144.267 -15.555 142.072" stroke="#8AB0DD" stroke-width="0.33" stroke-miterlimit="10"/>
<path d="M17.6294 142.072H-15.5547" stroke="#8AB0DD" stroke-width="0.33" stroke-miterlimit="10"/>
<path d="M1.03613 142.072V158.665" stroke="#8AB0DD" stroke-width="0.33" stroke-miterlimit="10"/>
<path d="M17.6294 158.665H50.8135V142.072H17.6294V158.665Z" stroke="#8AB0DD" stroke-width="0.33" stroke-miterlimit="10"/>
<path d="M50.8137 142.072C50.84 144.267 50.4302 146.446 49.6082 148.482C48.7861 150.518 47.5682 152.371 46.0248 153.933C44.4815 155.495 42.6436 156.735 40.6175 157.581C38.5914 158.428 36.4174 158.863 34.2217 158.863C32.0259 158.863 29.852 158.428 27.8259 157.581C25.7998 156.735 23.9618 155.495 22.4185 153.933C20.8751 152.371 19.6572 150.518 18.8351 148.482C18.0131 146.446 17.6033 144.267 17.6296 142.072" stroke="#8AB0DD" stroke-width="0.33" stroke-miterlimit="10"/>
<path d="M50.8135 142.072H17.6294" stroke="#8AB0DD" stroke-width="0.33" stroke-miterlimit="10"/>
<path d="M34.2227 142.072V158.665" stroke="#8AB0DD" stroke-width="0.33" stroke-miterlimit="10"/>
<path d="M50.8154 158.665H83.9995V142.072H50.8154V158.665Z" stroke="#8AB0DD" stroke-width="0.33" stroke-miterlimit="10"/>
<path d="M84 142.072C84 144.251 83.5708 146.408 82.7369 148.422C81.903 150.435 80.6807 152.264 79.1399 153.805C77.5991 155.346 75.7699 156.568 73.7567 157.402C71.7435 158.236 69.5858 158.665 67.4067 158.665C65.2277 158.665 63.0699 158.236 61.0568 157.402C59.0436 156.568 57.2144 155.346 55.6735 153.805C54.1327 152.264 52.9104 150.435 52.0766 148.422C51.2427 146.408 50.8135 144.251 50.8135 142.072" stroke="#8AB0DD" stroke-width="0.33" stroke-miterlimit="10"/>
<path d="M83.9976 142.072H50.8135" stroke="#8AB0DD" stroke-width="0.33" stroke-miterlimit="10"/>
<path d="M67.4067 142.072V158.665" stroke="#8AB0DD" stroke-width="0.33" stroke-miterlimit="10"/>
<path d="M83.9975 158.665H117.182V142.072H83.9975V158.665Z" stroke="#8AB0DD" stroke-width="0.33" stroke-miterlimit="10"/>
<path d="M117.184 142.072C117.211 144.267 116.801 146.446 115.979 148.482C115.157 150.518 113.939 152.371 112.395 153.933C110.852 155.495 109.014 156.735 106.988 157.581C104.962 158.428 102.788 158.863 100.592 158.863C98.3965 158.863 96.2226 158.428 94.1965 157.581C92.1704 156.735 90.3324 155.495 88.7891 153.933C87.2457 152.371 86.0278 150.518 85.2057 148.482C84.3837 146.446 83.9739 144.267 84.0002 142.072" stroke="#8AB0DD" stroke-width="0.33" stroke-miterlimit="10"/>
<path d="M117.184 142.072H83.9976" stroke="#8AB0DD" stroke-width="0.33" stroke-miterlimit="10"/>
<path d="M100.591 142.072V158.665" stroke="#8AB0DD" stroke-width="0.33" stroke-miterlimit="10"/>
<path d="M117.184 158.665H150.368V142.072H117.184V158.665Z" stroke="#8AB0DD" stroke-width="0.33" stroke-miterlimit="10"/>
<path d="M150.368 142.072C150.394 144.267 149.984 146.446 149.162 148.482C148.34 150.518 147.122 152.371 145.579 153.933C144.036 155.495 142.198 156.735 140.172 157.581C138.146 158.428 135.972 158.863 133.776 158.863C131.58 158.863 129.406 158.428 127.38 157.581C125.354 156.735 123.516 155.495 121.973 153.933C120.429 152.371 119.211 150.518 118.389 148.482C117.567 146.446 117.158 144.267 117.184 142.072" stroke="#8AB0DD" stroke-width="0.33" stroke-miterlimit="10"/>
<path d="M150.368 142.072H117.184" stroke="#8AB0DD" stroke-width="0.33" stroke-miterlimit="10"/>
<path d="M133.775 142.072V158.665" stroke="#8AB0DD" stroke-width="0.33" stroke-miterlimit="10"/>
<path d="M150.368 158.665H183.552V142.072H150.368V158.665Z" stroke="#8AB0DD" stroke-width="0.33" stroke-miterlimit="10"/>
<path d="M183.552 142.072C183.578 144.267 183.169 146.446 182.346 148.482C181.524 150.518 180.306 152.371 178.763 153.933C177.22 155.495 175.382 156.735 173.356 157.581C171.33 158.428 169.156 158.863 166.96 158.863C164.764 158.863 162.59 158.428 160.564 157.581C158.538 156.735 156.7 155.495 155.157 153.933C153.613 152.371 152.395 150.518 151.573 148.482C150.751 146.446 150.342 144.267 150.368 142.072" stroke="#8AB0DD" stroke-width="0.33" stroke-miterlimit="10"/>
<path d="M183.552 142.072H150.368" stroke="#8AB0DD" stroke-width="0.33" stroke-miterlimit="10"/>
<path d="M166.961 142.072V158.665" stroke="#8AB0DD" stroke-width="0.33" stroke-miterlimit="10"/>
<path d="M50.8137 50.8136H42.5171V59.1102H50.8137V50.8136Z" fill="white"/>
<path d="M92.2823 133.787H83.9976V142.072H92.2823V133.787Z" fill="black"/>
<path d="M117.184 59.1102H59.1101V50.8135H50.8135V-4.30396H117.184V59.1102Z" fill="white"/>
<path d="M0 76.8094H150.306V93.4003H167.936V126.587H67.3664V143.178H0V76.8094Z" fill="black"/>
<path d="M84.0001 142.072H67.4282V170.027H84.0001V142.072Z" fill="black"/>
<path d="M73.1795 33.3767L79.8862 29.5029C80.2689 29.2901 80.6054 29.0032 80.8762 28.6591C81.1469 28.315 81.3465 27.9204 81.4633 27.4984C81.5801 27.0764 81.6117 26.6354 81.5564 26.2011C81.5011 25.7667 81.36 25.3477 81.1412 24.9684C80.9224 24.5891 80.6303 24.2572 80.282 23.9919C79.9336 23.7266 79.536 23.5332 79.1122 23.423C78.6884 23.3129 78.247 23.2882 77.8135 23.3503C77.3801 23.4124 76.9633 23.5601 76.5876 23.7848L64.9946 30.4773L73.1795 33.3767Z" fill="#ED352F"/>
<path d="M78.2344 43.3298C78.9612 43.3301 79.6679 43.0906 80.2446 42.6483C80.8214 42.206 81.2361 41.5857 81.4244 40.8836C81.6126 40.1816 81.5639 39.437 81.2857 38.7655C81.0076 38.094 80.5156 37.533 79.8861 37.1697L68.2955 30.4773C67.5373 30.0395 66.6362 29.9209 65.7905 30.1476C64.9448 30.3742 64.2237 30.9275 63.786 31.6858C63.3482 32.444 63.2296 33.3451 63.4563 34.1908C63.6829 35.0365 64.2362 35.7576 64.9945 36.1953L76.5874 42.8877C77.0879 43.1775 77.656 43.33 78.2344 43.3298Z" fill="#4B7ABD"/>
<path d="M89.7631 43.3298C90.3421 43.3297 90.911 43.1773 91.4124 42.8877L103.003 36.1953L94.9226 33.2365L88.1114 37.1697C87.4818 37.533 86.9898 38.094 86.7117 38.7655C86.4336 39.437 86.3848 40.1816 86.5731 40.8836C86.7613 41.5857 87.176 42.206 87.7528 42.6483C88.3296 43.0905 89.0362 43.3301 89.7631 43.3298Z" fill="#FCB912"/>
<path d="M101.349 36.6373C102.077 36.6402 102.785 36.4026 103.364 35.9612C103.943 35.5199 104.36 34.8996 104.549 34.1969C104.739 33.4942 104.691 32.7485 104.413 32.0758C104.135 31.403 103.643 30.841 103.013 30.4772L91.422 23.7848C91.0465 23.568 90.6321 23.4273 90.2023 23.3708C89.7724 23.3142 89.3357 23.3428 88.9169 23.455C88.4982 23.5673 88.1056 23.7609 87.7617 24.0248C87.4178 24.2887 87.1292 24.6178 86.9124 24.9932C86.6957 25.3687 86.555 25.7832 86.4984 26.213C86.4419 26.6428 86.4705 27.0796 86.5827 27.4983C86.695 27.9171 86.8885 28.3096 87.1525 28.6535C87.4164 28.9975 87.7455 29.286 88.1209 29.5028L99.7115 36.1952C100.209 36.4829 100.774 36.6353 101.349 36.6373Z" fill="#00AC4E"/>
<path d="M42.4837 107.105L39.4512 108.754L38.4673 106.616C37.9367 107.287 37.2597 107.829 36.4879 108.2C35.7161 108.571 34.8698 108.76 34.0136 108.754C30.3109 108.754 28.374 105.689 28.374 100.945C28.374 95.7973 30.6579 93.0191 34.3036 93.0191C36.01 93.0191 37.3408 93.656 38.2083 94.842V87.2631H41.3311V104.79L42.4837 107.105ZM38.2059 105.023V96.9642C37.3947 96.2836 36.3725 95.9056 35.3136 95.8948C32.9988 95.8948 31.6394 97.6582 31.6394 100.985C31.6394 104.168 32.9133 105.931 35.2542 105.931C36.3035 105.914 37.3264 105.599 38.2035 105.023H38.2059Z" fill="white"/>
<path d="M57.9882 101.242H47.7476C47.9496 103.875 50.0029 105.639 53.2422 105.639C54.8892 105.639 56.6835 105.292 57.8979 104.655L56.914 107.866C55.9016 108.417 54.1952 108.764 52.2298 108.764C47.5741 108.764 44.5083 105.61 44.5083 100.81C44.5083 96.0089 47.4291 93.0287 52.0848 93.0287C55.9325 93.0287 58.3614 95.227 58.3614 98.7847C58.359 99.6178 58.2333 100.446 57.9882 101.242ZM47.9234 99.0747H55.2908C55.1458 96.8169 54.0764 95.7475 52.0801 95.7475C49.9079 95.738 48.4106 96.9809 47.9211 99.0652L47.9234 99.0747Z" fill="white"/>
<path d="M65.5934 108.372L59.6924 93.3994H63.136L66.979 103.856L67.4139 105.156H67.528L67.97 103.856L71.7725 93.3994H75.1567L69.2866 108.372H65.5934Z" fill="white"/>
<path d="M85.4019 93.4256H92.1704L91.7355 95.8259H84.9694L82.5928 109.303C81.9274 113.063 79.4106 114.48 75.8814 114.48C74.8082 114.486 73.7389 114.35 72.7015 114.076L72.6421 111.644C73.6627 111.816 74.6967 111.896 75.7316 111.882C77.8444 111.882 79.2323 111.043 79.5508 109.28L81.9274 95.8307H77.217L77.6519 93.4303H82.3647L82.6023 92.04C83.2678 88.3112 85.7536 86.8924 89.2567 86.8924C90.3407 86.878 91.4213 87.0148 92.4675 87.2988L92.5245 89.7847C91.5103 89.5626 90.4728 89.4653 89.435 89.4947C87.3531 89.4947 85.9628 90.3337 85.6443 92.109L85.4019 93.4256Z" fill="white"/>
<path d="M106.14 101.242H95.9019C96.1039 103.875 98.1572 105.639 101.397 105.639C103.043 105.639 104.838 105.292 106.052 104.655L105.068 107.866C104.056 108.417 102.35 108.764 100.384 108.764C95.7284 108.764 92.6626 105.61 92.6626 100.81C92.6626 96.0089 95.5834 93.0287 100.239 93.0287C104.087 93.0287 106.516 95.227 106.516 98.7847C106.513 99.6179 106.386 100.446 106.14 101.242ZM96.0754 99.0747H103.443C103.298 96.8169 102.228 95.7475 100.232 95.7475C98.0693 95.738 96.5673 96.9809 96.0754 99.0652V99.0747Z" fill="white"/>
<path d="M109.494 107.481L109.292 104.125C110.622 105.052 113.051 105.862 115.597 105.862C117.533 105.862 118.924 105.254 118.924 103.894C118.924 101.059 109.612 103.692 109.612 97.9078C109.612 95.2175 111.637 92.9336 116.466 92.9336C119.416 92.9336 121.673 93.6466 121.673 95.448C121.643 95.9617 121.484 96.4594 121.21 96.8953C119.648 96.2194 117.966 95.8653 116.264 95.8544C113.95 95.8544 112.735 96.7218 112.735 97.6772C112.735 100.192 122.163 97.9933 122.163 103.633C122.163 106.787 119.387 108.754 115.252 108.754C113.264 108.744 111.301 108.309 109.494 107.481Z" fill="white"/>
<path d="M138.271 105.197L137.634 108.118C136.466 108.54 135.233 108.755 133.991 108.754C130.26 108.754 128.667 106.815 128.667 104.068V96.0279H124.418V93.3994H128.667V89.288H131.792V93.3994H137.841V96.0327H131.792V103.117C131.792 105.057 132.805 105.924 134.568 105.924C135.581 105.919 137.432 105.689 138.271 105.197Z" fill="white"/>
</g>
</svg>
