<svg width="104" height="10" viewBox="0 0 104 10" fill="none" xmlns="http://www.w3.org/2000/svg">
<path d="M19.6274 7.38367C19.2017 7.08533 18.8494 6.64996 18.6079 6.12398C18.3593 5.58917 18.2341 4.99911 18.2341 4.35158C18.2341 3.70406 18.3593 3.11399 18.6079 2.57918C18.8494 2.0532 19.2017 1.61784 19.6274 1.31949C20.0567 1.01451 20.5413 0.855394 21.0368 0.859815C21.4195 0.857605 21.8005 0.946004 22.1564 1.1228C22.507 1.29518 22.7949 1.54049 23.022 1.85873L22.5624 2.4289C22.3871 2.16149 22.1582 1.95596 21.9024 1.82779C21.627 1.68635 21.3337 1.61342 21.0368 1.61563C20.6648 1.61563 20.2999 1.73276 19.9762 1.95817C19.6453 2.18359 19.3716 2.51509 19.1821 2.91731C18.9835 3.33278 18.8834 3.81014 18.8834 4.35158C18.8834 4.89303 18.9835 5.37038 19.1821 5.78365C19.3716 6.18586 19.6453 6.51736 19.9762 6.74499C20.2999 6.97041 20.6648 7.08754 21.0368 7.08533C21.3981 7.08533 21.7021 7.01682 21.9471 6.87538C22.185 6.74057 22.4014 6.55272 22.5839 6.32067C22.7216 6.13503 22.8289 5.92067 22.9022 5.68641C22.9845 5.42563 23.0328 5.15159 23.0453 4.87314H21.0511V4.13721H23.6498C23.6749 4.29854 23.6874 4.45987 23.6874 4.62341C23.6892 5.03005 23.6355 5.43447 23.53 5.82122C23.4263 6.20575 23.2528 6.55493 23.0238 6.84444C22.5159 7.50964 21.8523 7.84335 21.0368 7.84335C20.5431 7.84777 20.0567 7.68865 19.6274 7.38367ZM26.7243 6.90853C26.9246 6.76267 27.0874 6.55051 27.1965 6.29857C27.3145 6.03338 27.3736 5.72619 27.3736 5.37922C27.3736 5.03005 27.3145 4.72286 27.1965 4.45766C27.0874 4.20572 26.9246 3.99357 26.7243 3.84771C26.5329 3.70627 26.313 3.63113 26.0894 3.63334C25.8694 3.63334 25.653 3.70627 25.4634 3.84771C25.2649 3.99357 25.1003 4.20572 24.9912 4.45766C24.8714 4.72286 24.8124 5.03005 24.8124 5.37701C24.8124 5.72619 24.8714 6.03117 24.9894 6.29636C25.0985 6.55051 25.2631 6.76267 25.4634 6.90853C25.6512 7.04997 25.8694 7.1251 26.0894 7.12289C26.313 7.1251 26.5329 7.04997 26.7243 6.90853ZM25.1003 7.52069C24.8106 7.30853 24.5727 7.00135 24.4171 6.63228C24.2526 6.25658 24.1703 5.8389 24.1703 5.37701C24.1703 4.91734 24.2526 4.49965 24.4171 4.12395C24.5727 3.75489 24.8106 3.4477 25.1003 3.23554C25.3919 3.02117 25.7227 2.91289 26.0894 2.91289C26.4578 2.91289 26.7887 3.02117 27.0838 3.23554C27.3736 3.4477 27.6132 3.75268 27.7706 4.12174C27.9334 4.49965 28.0156 4.91734 28.0156 5.37701C28.0156 5.8389 27.9334 6.25658 27.7706 6.63228C27.6132 7.00135 27.3736 7.30853 27.0838 7.52069C26.7887 7.73506 26.4578 7.84114 26.0894 7.84114C25.7227 7.84114 25.3919 7.73506 25.1003 7.52069ZM31.0061 6.90853C31.2064 6.76267 31.3692 6.55051 31.4783 6.29857C31.5963 6.03338 31.6553 5.72619 31.6553 5.37922C31.6553 5.03005 31.5963 4.72507 31.4783 4.45987C31.3692 4.20572 31.2064 3.99578 31.0061 3.84771C30.8147 3.70627 30.5965 3.63334 30.3729 3.63334C30.1512 3.63334 29.9347 3.70627 29.7452 3.84771C29.5466 3.99578 29.3821 4.20572 29.273 4.45987C29.1549 4.72286 29.0959 5.03005 29.0959 5.37922C29.0959 5.72619 29.1549 6.03338 29.273 6.29857C29.3821 6.55051 29.5466 6.76267 29.7452 6.90853C29.9347 7.04997 30.1512 7.1251 30.3729 7.12289C30.5965 7.1251 30.8147 7.04997 31.0061 6.90853ZM29.3821 7.52069C29.0923 7.30853 28.8563 7.00135 28.6989 6.63228C28.5361 6.25658 28.4538 5.8389 28.4538 5.37701C28.4538 4.91734 28.5361 4.49965 28.6989 4.12395C28.8563 3.75489 29.0923 3.4477 29.3821 3.23554C29.6754 3.02117 30.0045 2.91289 30.3712 2.91289C30.7396 2.91289 31.0705 3.02117 31.3656 3.23554C31.6571 3.44549 31.895 3.75268 32.0524 4.12174C32.2169 4.49965 32.2974 4.91734 32.2974 5.37701C32.2974 5.8389 32.2169 6.25658 32.0524 6.63228C31.895 7.00135 31.6571 7.30853 31.3656 7.51848C31.0705 7.73506 30.7396 7.84114 30.3712 7.84114C30.0045 7.84114 29.6754 7.73506 29.3821 7.52069ZM35.2217 6.91295C35.413 6.76488 35.5686 6.55493 35.6706 6.30741C35.7851 6.04443 35.8405 5.73503 35.8405 5.37701C35.8405 5.0212 35.7851 4.7096 35.6706 4.4444C35.5579 4.1792 35.4077 3.97589 35.2217 3.83887C35.0374 3.70185 34.8246 3.63113 34.61 3.63334C34.3936 3.63113 34.1825 3.70406 33.9983 3.84329C33.8069 3.99135 33.6513 4.2013 33.5476 4.44882C33.4349 4.71181 33.3777 5.0212 33.3777 5.37701C33.3777 5.73503 33.4349 6.04443 33.5476 6.30741C33.6513 6.55493 33.8069 6.76488 33.9983 6.91295C34.3739 7.19361 34.8443 7.19361 35.2217 6.91295ZM33.485 9.45663C33.197 9.18923 33.0039 8.87762 32.9019 8.52402L33.4993 8.21462C33.5726 8.48424 33.7139 8.7185 33.9035 8.88204C34.0985 9.05442 34.3274 9.1384 34.5957 9.1384C34.9927 9.1384 35.2986 8.99696 35.5132 8.71187C35.7278 8.42678 35.8351 8.02678 35.8333 7.51406V7.02124H35.8029C35.6813 7.25549 35.5078 7.45218 35.2807 7.60909C35.0553 7.766 34.7978 7.84335 34.5116 7.84335C34.1968 7.84335 33.891 7.73506 33.6263 7.52511C33.3509 7.30632 33.1273 7.00356 32.9771 6.64333C32.8161 6.26763 32.7356 5.84774 32.7356 5.37922C32.7356 4.91071 32.8161 4.4886 32.9771 4.11511C33.1273 3.75489 33.3509 3.45212 33.6263 3.23333C33.891 3.02338 34.1968 2.91288 34.5116 2.9151C34.7978 2.9151 35.0553 2.99244 35.2807 3.14714C35.5078 3.30405 35.6813 3.50074 35.8029 3.73721H35.8333V3.06316H36.4468V7.50522C36.4468 8.01573 36.3663 8.44888 36.2054 8.80248C36.0551 9.14282 35.8244 9.41906 35.5436 9.59586C35.2646 9.76824 34.948 9.85664 34.5957 9.85664C34.1414 9.85664 33.7712 9.72404 33.485 9.45663ZM37.2159 1.01009H37.858V7.69086H37.2159V1.01009ZM41.4082 4.8643C41.3957 4.66982 41.351 4.47976 41.2794 4.30517C41.2025 4.11732 41.0809 3.95821 40.9128 3.82782C40.7447 3.69743 40.5283 3.63334 40.2671 3.63334C39.9971 3.62671 39.7359 3.74826 39.5338 3.96926C39.3264 4.19246 39.1976 4.49081 39.1421 4.8643H41.4082ZM39.3568 7.52511C39.0742 7.31295 38.8417 7.01019 38.6896 6.64775C38.5287 6.27426 38.4482 5.84995 38.4482 5.37701C38.4446 4.94828 38.5215 4.52617 38.6735 4.13942C38.8184 3.77478 39.042 3.46317 39.321 3.24438C39.6 3.02338 39.9202 2.91289 40.2832 2.91289C40.6463 2.91289 40.9647 3.01454 41.2383 3.21565C41.512 3.41897 41.7319 3.71511 41.8697 4.07091C42.0145 4.43777 42.0879 4.86209 42.0879 5.33944C42.0897 5.40353 42.0861 5.46541 42.0736 5.52729H39.0956C39.1064 5.87426 39.1743 6.17039 39.2995 6.40907C39.4158 6.6367 39.5785 6.82234 39.7717 6.94389C39.9524 7.06102 40.1545 7.12068 40.3583 7.12289C40.8305 7.12289 41.1972 6.8356 41.4547 6.26321L42.0217 6.59913C41.8643 6.96599 41.6354 7.27538 41.3528 7.5008C41.0684 7.72622 40.7268 7.84114 40.3297 7.84114C39.9667 7.84114 39.6411 7.73506 39.3568 7.52511ZM46.1818 6.93726C46.8203 6.93726 47.3265 6.70963 47.7003 6.25437C48.0723 5.80133 48.2583 5.16706 48.2583 4.35158C48.2583 3.5361 48.0723 2.90184 47.7003 2.44658C47.3265 1.99353 46.8203 1.76591 46.1818 1.76591H45.1838V6.93726H46.1818ZM44.5417 1.01009H46.1818C46.7363 1.01009 47.2192 1.15153 47.6323 1.43441C48.0348 1.70624 48.3656 2.11508 48.5838 2.61454C48.8056 3.11841 48.9165 3.69743 48.9165 4.35158C48.9165 5.00353 48.8056 5.58254 48.5838 6.08641C48.3656 6.58587 48.0348 6.99693 47.6323 7.26875C47.2192 7.55163 46.7345 7.69307 46.1818 7.69307H44.5417V1.01009ZM52.4185 4.8643C52.4077 4.66982 52.363 4.47976 52.2897 4.30517C52.2146 4.11732 52.0929 3.95821 51.9248 3.82782C51.7549 3.69743 51.5403 3.63334 51.2774 3.63334C51.0091 3.62671 50.7462 3.74605 50.5459 3.96926C50.3384 4.19246 50.2078 4.49081 50.1524 4.8643H52.4185ZM50.3688 7.52511C50.0844 7.31295 49.8537 7.01019 49.7017 6.64775C49.5389 6.27426 49.4584 5.84995 49.4584 5.37701C49.4549 4.94828 49.5336 4.52617 49.6856 4.13942C49.8304 3.77478 50.054 3.46317 50.3312 3.24438C50.612 3.02338 50.9322 2.91289 51.2953 2.91289C51.6565 2.91289 51.9749 3.01454 52.2503 3.21565C52.524 3.41897 52.744 3.71511 52.8817 4.07091C53.0266 4.43777 53.0999 4.86209 53.0999 5.33944C53.1017 5.40353 53.0981 5.46541 53.0856 5.52729H50.1095C50.1184 5.87426 50.1864 6.17039 50.3134 6.40907C50.4278 6.6367 50.5906 6.82234 50.7855 6.94389C50.9662 7.06102 51.1665 7.12068 51.3704 7.12289C51.8443 7.12289 52.2092 6.8356 52.465 6.26321L53.0319 6.59913C52.8763 6.96599 52.6456 7.27538 52.3648 7.5008C52.0804 7.72622 51.7388 7.84114 51.3418 7.84114C50.9787 7.84114 50.655 7.73506 50.3688 7.52511ZM53.2519 3.06316H53.9459L55.0941 6.75825H55.1084L56.2728 3.06316H56.9524L55.4178 7.69307H54.7686L53.2519 3.06316ZM60.1771 4.8643C60.1646 4.66982 60.1217 4.47976 60.0484 4.30517C59.9732 4.11732 59.8516 3.95821 59.6835 3.82782C59.5136 3.69743 59.299 3.63334 59.0361 3.63334C58.7678 3.62671 58.5049 3.74826 58.3045 3.96926C58.0971 4.19246 57.9665 4.49081 57.9111 4.8643H60.1771ZM58.1275 7.52511C57.8431 7.31295 57.6124 7.01019 57.4586 6.64775C57.2976 6.27426 57.2171 5.84995 57.2171 5.37701C57.2135 4.94828 57.2922 4.52617 57.4443 4.13942C57.5891 3.77478 57.8109 3.46317 58.0899 3.24438C58.3689 3.02338 58.6909 2.91289 59.0539 2.91289C59.4152 2.91289 59.7336 3.01454 60.009 3.21565C60.2827 3.41897 60.5009 3.71511 60.6386 4.07091C60.7852 4.43777 60.8586 4.86209 60.8586 5.33944C60.8604 5.40353 60.855 5.46541 60.8425 5.52729H57.8664C57.8753 5.87426 57.9433 6.17039 58.0702 6.40907C58.1847 6.6367 58.3493 6.82234 58.5424 6.94389C58.7231 7.06102 58.9234 7.12068 59.1273 7.12289C59.6012 7.12289 59.9661 6.8356 60.2236 6.26321L60.7888 6.59913C60.6332 6.96599 60.4025 7.27538 60.1217 7.5008C59.8373 7.72622 59.4957 7.84114 59.0987 7.84114C58.7356 7.84114 58.4119 7.73506 58.1275 7.52511ZM61.506 1.01009H62.1499V7.69086H61.506V1.01009ZM65.3138 6.90853C65.5124 6.76267 65.6769 6.55051 65.786 6.29857C65.904 6.03338 65.9631 5.72619 65.9631 5.37922C65.9631 5.03005 65.904 4.72507 65.786 4.45987C65.6769 4.20572 65.5124 3.99357 65.3138 3.8455C65.1225 3.70406 64.9025 3.63113 64.6789 3.63113C64.4589 3.63113 64.2425 3.70627 64.0529 3.8455C63.8526 3.99357 63.6898 4.20351 63.5807 4.45766C63.4627 4.72286 63.4037 5.02783 63.4037 5.37701C63.4037 5.72619 63.4627 6.03117 63.5807 6.29636C63.6898 6.55051 63.8526 6.76267 64.0529 6.90853C64.2425 7.04997 64.4589 7.1251 64.6789 7.12289C64.9025 7.1251 65.1225 7.04997 65.3138 6.90853ZM63.6898 7.52069C63.4001 7.30853 63.1622 7.00135 63.0066 6.63228C62.8421 6.25658 62.7598 5.8389 62.7598 5.37701C62.7616 4.91734 62.8421 4.49965 63.0066 4.12395C63.164 3.75489 63.4001 3.4477 63.6898 3.23554C63.9814 3.02117 64.3122 2.91289 64.6789 2.91289C65.0473 2.91289 65.3782 3.02117 65.6733 3.23554C65.9649 3.4477 66.2027 3.75268 66.3601 4.12395C66.5247 4.49965 66.6069 4.91734 66.6069 5.37701C66.6069 5.8389 66.5247 6.25658 66.3601 6.63228C66.2027 7.00135 65.9649 7.30853 65.6733 7.52069C65.3782 7.73506 65.0473 7.84114 64.6807 7.84114C64.3122 7.84114 63.9832 7.73506 63.6898 7.52069ZM69.6528 6.90853C69.846 6.76046 70.0034 6.5483 70.1053 6.29857C70.2198 6.03338 70.277 5.72619 70.277 5.37922C70.277 5.03005 70.2198 4.72507 70.1053 4.45987C70.0034 4.20793 69.846 3.99798 69.6528 3.84771C69.4686 3.70627 69.254 3.63113 69.0376 3.63334C68.8211 3.63113 68.6083 3.70406 68.4223 3.84329C68.2291 3.98915 68.0718 4.19909 67.9698 4.45103C67.8553 4.71402 67.7999 5.02342 67.7999 5.37922C67.7999 5.7284 67.8553 6.03558 67.9698 6.30299C68.0825 6.5704 68.2327 6.77372 68.4223 6.91295C68.6083 7.05218 68.8211 7.1251 69.0376 7.12289C69.2558 7.1251 69.4686 7.04997 69.6528 6.90853ZM67.1864 3.06316H67.7981V3.74384H67.8285C67.9501 3.50958 68.1236 3.31068 68.3508 3.15156C68.5779 2.99244 68.839 2.91289 69.1359 2.91289C69.4507 2.91068 69.7619 3.02338 70.0266 3.23554C70.3021 3.45433 70.5256 3.75931 70.6759 4.11732C70.8368 4.49081 70.9173 4.91071 70.9173 5.37701C70.9173 5.84332 70.8368 6.26321 70.6759 6.6367C70.5256 6.99693 70.3021 7.29969 70.0266 7.51848C69.7619 7.73064 69.4525 7.84335 69.1359 7.84114C68.839 7.84114 68.5743 7.76158 68.3454 7.60246C68.1165 7.44555 67.9448 7.24444 67.8285 7.00135H67.7981L67.8285 7.64445V9.70857H67.1864V3.06316ZM74.4676 4.8643C74.455 4.66982 74.4121 4.47976 74.3388 4.30517C74.2637 4.11732 74.1421 3.95821 73.9721 3.82782C73.804 3.69743 73.5894 3.63334 73.3265 3.63334C73.0582 3.62671 72.7953 3.74826 72.595 3.96926C72.3875 4.19246 72.2569 4.49081 72.2015 4.8643H74.4676ZM72.4179 7.52511C72.1335 7.31295 71.9028 7.01019 71.749 6.64775C71.588 6.27426 71.5075 5.84995 71.5075 5.37701C71.504 4.94828 71.5826 4.52617 71.7347 4.13942C71.8795 3.77478 72.1031 3.46317 72.3803 3.24438C72.6593 3.02338 72.9813 2.91289 73.3444 2.91289C73.7056 2.91289 74.0258 3.01454 74.2994 3.21565C74.5731 3.41897 74.7931 3.71511 74.929 4.07091C75.0757 4.43777 75.149 4.86209 75.149 5.33944C75.1508 5.40353 75.1454 5.46541 75.1347 5.52729H72.1586C72.1675 5.87426 72.2355 6.17039 72.3607 6.40907C72.4769 6.6367 72.6397 6.82234 72.8328 6.94389C73.0153 7.06102 73.2156 7.12068 73.4195 7.12289C73.8916 7.12289 74.2583 6.8356 74.5141 6.26321L75.081 6.59913C74.9254 6.96599 74.6947 7.27538 74.4139 7.5008C74.1295 7.72622 73.7879 7.84114 73.3891 7.84114C73.026 7.84114 72.7023 7.73506 72.4179 7.52511ZM75.7982 3.06316H76.4099V3.81898H76.4385C76.5101 3.56483 76.6549 3.34825 76.8731 3.17587C77.0931 3.00128 77.3113 2.91289 77.5277 2.91289C77.6762 2.91289 77.8246 2.94383 77.9641 3.00791V3.85655C77.83 3.76373 77.6529 3.71732 77.4365 3.71732C77.2595 3.71732 77.0878 3.78362 76.9411 3.90738C76.7873 4.03776 76.6603 4.21235 76.5745 4.41788C76.485 4.63225 76.4385 4.86872 76.4385 5.1096V7.69307H75.7982V3.06316ZM81.2694 7.38367C80.8437 7.08533 80.4914 6.64996 80.2499 6.12398C80.0013 5.58917 79.8761 4.99911 79.8761 4.35158C79.8761 3.70406 80.0013 3.11399 80.2499 2.57697C80.4914 2.0532 80.8437 1.61563 81.2694 1.31728C81.6986 1.01451 82.1851 0.855394 82.6787 0.859815C83.0615 0.857605 83.4424 0.946004 83.7984 1.1228C84.1489 1.29518 84.4369 1.54049 84.664 1.85873L84.2026 2.4289C84.0273 2.16149 83.8001 1.95596 83.5426 1.82558C83.269 1.68414 82.9739 1.61342 82.677 1.61563C82.3049 1.61342 81.9401 1.73055 81.6163 1.95596C81.2873 2.18359 81.0118 2.51509 80.8222 2.91731C80.6237 3.33278 80.5253 3.81014 80.5253 4.35158C80.5253 4.89303 80.6255 5.37038 80.824 5.78365C81.0136 6.18586 81.2873 6.51736 81.6163 6.74499C81.9401 6.97041 82.3067 7.08754 82.6787 7.08533C83.0418 7.08533 83.3441 7.01682 83.5891 6.87538C83.827 6.74057 84.0434 6.55272 84.2276 6.32067C84.3635 6.13503 84.4709 5.92067 84.5442 5.68641C84.6265 5.42563 84.6748 5.15159 84.6873 4.87314H82.693V4.13721H85.2918C85.315 4.29854 85.3276 4.45987 85.3294 4.62341C85.3294 5.03005 85.2757 5.43447 85.1702 5.82122C85.0664 6.20575 84.8947 6.55493 84.664 6.84444C84.1561 7.50964 83.4943 7.84335 82.6787 7.84335C82.1833 7.84777 81.6968 7.68865 81.2694 7.38367ZM86.0627 3.06316H86.6743V3.81898H86.7047C86.7745 3.56483 86.9194 3.34825 87.1394 3.17587C87.3576 3.00128 87.5758 2.91289 87.7922 2.91289C87.9406 2.91289 88.0891 2.94383 88.2304 3.00791V3.85655C88.0944 3.76373 87.9174 3.71732 87.701 3.71732C87.5239 3.71732 87.3522 3.78362 87.2073 3.90738C87.0517 4.03776 86.9265 4.21235 86.8407 4.41788C86.7495 4.63225 86.703 4.86872 86.7047 5.1096V7.69307H86.0627V3.06316ZM90.8667 6.90853C91.0652 6.76267 91.228 6.55051 91.3388 6.29857C91.4569 6.03338 91.5159 5.72619 91.5159 5.37701C91.5159 5.03005 91.4569 4.72286 91.3388 4.45766C91.228 4.20572 91.0652 3.99357 90.8667 3.84771C90.6735 3.70627 90.4553 3.63113 90.2317 3.63334C90.01 3.63113 89.7935 3.70627 89.604 3.84771C89.4054 3.99357 89.2409 4.20572 89.1318 4.45766C89.0137 4.72286 88.9547 5.03005 88.9547 5.37701C88.9547 5.72619 89.0137 6.03338 89.1318 6.29636C89.2409 6.55051 89.4036 6.76267 89.604 6.90853C89.7935 7.04997 90.01 7.12289 90.2299 7.12289C90.4535 7.1251 90.6735 7.04997 90.8667 6.90853ZM89.2427 7.52069C88.9511 7.30853 88.7151 7.00135 88.5595 6.63228C88.3949 6.25658 88.3126 5.8389 88.3126 5.37701C88.3126 4.91734 88.3949 4.49965 88.5595 4.12395C88.7168 3.75489 88.9529 3.4477 89.2427 3.23554C89.5342 3.02117 89.8651 2.91289 90.2335 2.91289C90.6002 2.91289 90.9311 3.02117 91.2262 3.23554C91.5177 3.4477 91.7556 3.75268 91.913 4.12174C92.0775 4.49965 92.158 4.91734 92.158 5.37701C92.158 5.8389 92.0775 6.25658 91.913 6.63228C91.7556 7.00135 91.5177 7.30853 91.2262 7.52069C90.9311 7.73506 90.6002 7.84114 90.2335 7.84114C89.8651 7.84114 89.5342 7.73506 89.2427 7.52069ZM93.0988 7.3461C92.8591 7.01682 92.7393 6.55935 92.7393 5.97592V3.06316H93.3814V5.84553C93.3814 6.69637 93.6908 7.12289 94.3114 7.12289C94.5099 7.1251 94.7049 7.04997 94.8658 6.90853C95.0304 6.76488 95.1592 6.57261 95.2432 6.3494C95.3309 6.12177 95.3756 5.87205 95.3756 5.62011V3.06316H96.0105V7.69307H95.406V7.00135H95.3756C95.2647 7.23781 95.0984 7.43671 94.873 7.59804C94.6548 7.75937 94.4062 7.84335 94.1522 7.84114C93.689 7.84114 93.3366 7.6776 93.0988 7.3461ZM99.3139 6.90853C99.5071 6.76046 99.6645 6.5483 99.7664 6.29857C99.8809 6.03338 99.9363 5.72619 99.9363 5.37922C99.9363 5.03005 99.8809 4.72507 99.7664 4.45987C99.6645 4.20793 99.5071 3.99798 99.3139 3.84771C99.1297 3.70627 98.9169 3.63113 98.6987 3.63334C98.4823 3.63113 98.2694 3.70406 98.0834 3.84329C97.8903 3.98915 97.7329 4.19909 97.6309 4.45103C97.5164 4.71402 97.461 5.02342 97.4592 5.37922C97.4592 5.7284 97.5164 6.03558 97.6309 6.30299C97.7436 6.5704 97.8938 6.77372 98.0834 6.91295C98.2694 7.05218 98.4823 7.1251 98.6987 7.12289C98.9169 7.1251 99.1297 7.04997 99.3139 6.90853ZM96.8475 3.06316H97.4592V3.74384H97.4896C97.6113 3.50958 97.7847 3.31068 98.0119 3.15156C98.2372 2.99244 98.5002 2.91289 98.7971 2.91289C99.1136 2.91068 99.423 3.02338 99.6895 3.23554C99.965 3.45433 100.189 3.75931 100.339 4.11732C100.5 4.49081 100.58 4.91071 100.58 5.37701C100.58 5.84553 100.5 6.26542 100.339 6.6367C100.189 6.99693 99.965 7.29969 99.6895 7.52069C99.423 7.73285 99.1136 7.84335 98.7971 7.84114C98.5002 7.84114 98.2372 7.76158 98.0083 7.60246C97.7794 7.44555 97.6077 7.24444 97.4914 7.00135H97.461L97.4914 7.64666V9.70857H96.8493L96.8475 3.06316ZM101.501 7.46986C101.224 7.22013 101.029 6.91074 100.92 6.54609L101.485 6.23669C101.587 6.52841 101.728 6.75383 101.913 6.90853C102.088 7.06102 102.297 7.14278 102.514 7.14278C102.755 7.14278 102.955 7.07648 103.113 6.9461C103.272 6.81571 103.351 6.65659 103.352 6.47095C103.354 6.29415 103.288 6.1284 103.174 6.02233C103.056 5.9052 102.853 5.80133 102.565 5.71514L102.052 5.55381C101.787 5.48309 101.539 5.33281 101.331 5.11623C101.133 4.90408 101.033 4.62341 101.033 4.27423C101.033 3.98915 101.099 3.74384 101.233 3.53831C101.374 3.32836 101.557 3.16703 101.766 3.072C101.997 2.96371 102.244 2.91068 102.49 2.91289C102.798 2.90847 103.102 3.00349 103.37 3.18913C103.626 3.3593 103.825 3.63555 103.934 3.96926L103.367 4.2676C103.295 4.05544 103.165 3.88086 103 3.77257C102.83 3.66428 102.642 3.61124 102.453 3.61345C102.265 3.61124 102.081 3.67091 101.92 3.79025C101.761 3.90959 101.682 4.05986 101.682 4.24771C101.677 4.4002 101.736 4.54385 101.836 4.63004C101.94 4.72507 102.104 4.80905 102.331 4.88198L102.889 5.04993C103.261 5.16927 103.54 5.34386 103.724 5.57812C103.903 5.79912 104.003 6.09968 104 6.41349C104.002 6.67427 103.936 6.93063 103.81 7.14057C103.685 7.35936 103.508 7.52953 103.283 7.6555C103.056 7.77926 102.798 7.84114 102.512 7.84114C102.115 7.84114 101.779 7.71738 101.501 7.46986ZM5.95224 6.14387L1.77421 3.16261C1.20188 2.76261 0.475735 3.01454 0.153798 3.72174C-0.164561 4.41788 0.0268119 5.30187 0.584836 5.70851L4.76107 8.68977C5.34056 9.07431 6.06134 8.80911 6.37433 8.09308C6.67481 7.40798 6.4888 6.55272 5.95224 6.14387ZM14.2832 3.16261L10.1052 0.181351C9.52932 -0.209815 8.80675 0.0531726 8.49017 0.764786C8.18433 1.4543 8.37213 2.3184 8.91585 2.72504L13.0939 5.70851C13.6626 6.11293 14.3906 5.87205 14.7179 5.16927C15.047 4.4665 14.852 3.56704 14.2832 3.16261ZM12.9275 6.0621L10.978 4.66982L8.91585 6.14387C8.34709 6.5483 8.15214 7.44776 8.47944 8.15053C8.80853 8.85552 9.53647 9.09641 10.1052 8.68977L13.4641 6.29415C13.2745 6.25879 13.0939 6.17923 12.9275 6.0621ZM1.93876 2.80681L3.88827 4.19909L5.95224 2.72725C6.51205 2.30072 6.68554 1.39463 6.34035 0.702906C6.00947 0.0399125 5.31731 -0.189925 4.76107 0.181351L1.40399 2.57697C1.59178 2.61233 1.77421 2.68968 1.93876 2.80681Z" fill="#F7F7F7"/>
</svg>
