<svg width="116" height="116" viewBox="0 0 116 116" fill="none" xmlns="http://www.w3.org/2000/svg">
<mask id="mask0_0_3562" style="mask-type:luminance" maskUnits="userSpaceOnUse" x="0" y="0" width="116" height="116">
<path d="M58 116C90.0325 116 116 90.0325 116 58C116 25.9675 90.0325 0 58 0C25.9675 0 0 25.9675 0 58C0 90.0325 25.9675 116 58 116Z" fill="white"/>
</mask>
<g mask="url(#mask0_0_3562)">
<path d="M57.9985 115.998C90.0311 115.998 115.999 90.0308 115.999 57.9983C115.999 25.9658 90.0311 -0.00170898 57.9985 -0.00170898C25.966 -0.00170898 -0.00146484 25.9658 -0.00146484 57.9983C-0.00146484 90.0308 25.966 115.998 57.9985 115.998Z" fill="black"/>
<path d="M149.652 -5.01318H-33.6543V132.467H149.652V-5.01318Z" fill="#2B83FC"/>
<path d="M12.1731 -5.01318H-10.7397V17.8996H12.1731V-5.01318Z" stroke="#8AB0DD" stroke-width="0.33" stroke-miterlimit="10"/>
<path d="M0.716027 17.9013C7.04368 17.9013 12.1733 12.7717 12.1733 6.44405C12.1733 0.116396 7.04368 -5.01318 0.716027 -5.01318C-5.61163 -5.01318 -10.7412 0.116396 -10.7412 6.44405C-10.7412 12.7717 -5.61163 17.9013 0.716027 17.9013Z" stroke="#8AB0DD" stroke-width="0.33" stroke-miterlimit="10"/>
<path d="M-10.7397 6.44409H12.1731" stroke="#8AB0DD" stroke-width="0.33" stroke-miterlimit="10"/>
<path d="M0.71582 17.9013V-5.01318" stroke="#8AB0DD" stroke-width="0.33" stroke-miterlimit="10"/>
<path d="M35.0857 -5.01318H12.1729V17.8996H35.0857V-5.01318Z" stroke="#8AB0DD" stroke-width="0.33" stroke-miterlimit="10"/>
<path d="M23.6301 17.9013C29.9577 17.9013 35.0873 12.7717 35.0873 6.44405C35.0873 0.116396 29.9577 -5.01318 23.6301 -5.01318C17.3024 -5.01318 12.1729 0.116396 12.1729 6.44405C12.1729 12.7717 17.3024 17.9013 23.6301 17.9013Z" stroke="#8AB0DD" stroke-width="0.33" stroke-miterlimit="10"/>
<path d="M12.1729 6.44409H35.0857" stroke="#8AB0DD" stroke-width="0.33" stroke-miterlimit="10"/>
<path d="M23.6304 17.9013V-5.01318" stroke="#8AB0DD" stroke-width="0.33" stroke-miterlimit="10"/>
<path d="M57.9988 -5.01318H35.0859V17.8996H57.9988V-5.01318Z" stroke="#8AB0DD" stroke-width="0.33" stroke-miterlimit="10"/>
<path d="M46.5432 17.9013C52.8708 17.9013 58.0004 12.7717 58.0004 6.44405C58.0004 0.116396 52.8708 -5.01318 46.5432 -5.01318C40.2155 -5.01318 35.0859 0.116396 35.0859 6.44405C35.0859 12.7717 40.2155 17.9013 46.5432 17.9013Z" stroke="#8AB0DD" stroke-width="0.33" stroke-miterlimit="10"/>
<path d="M35.0859 6.44409H57.9988" stroke="#8AB0DD" stroke-width="0.33" stroke-miterlimit="10"/>
<path d="M46.543 17.9013V-5.01318" stroke="#8AB0DD" stroke-width="0.33" stroke-miterlimit="10"/>
<path d="M80.9114 -5.01318H57.9985V17.8996H80.9114V-5.01318Z" stroke="#8AB0DD" stroke-width="0.33" stroke-miterlimit="10"/>
<path d="M69.4558 17.9013C75.7834 17.9013 80.913 12.7717 80.913 6.44405C80.913 0.116396 75.7834 -5.01318 69.4558 -5.01318C63.1281 -5.01318 57.9985 0.116396 57.9985 6.44405C57.9985 12.7717 63.1281 17.9013 69.4558 17.9013Z" stroke="#8AB0DD" stroke-width="0.33" stroke-miterlimit="10"/>
<path d="M57.9985 6.44409H80.913" stroke="#8AB0DD" stroke-width="0.33" stroke-miterlimit="10"/>
<path d="M69.4561 17.9013V-5.01318" stroke="#8AB0DD" stroke-width="0.33" stroke-miterlimit="10"/>
<path d="M103.826 -5.01318H80.9131V17.8996H103.826V-5.01318Z" stroke="#8AB0DD" stroke-width="0.33" stroke-miterlimit="10"/>
<path d="M92.3689 17.9013C98.6965 17.9013 103.826 12.7717 103.826 6.44405C103.826 0.116396 98.6965 -5.01318 92.3689 -5.01318C86.0412 -5.01318 80.9116 0.116396 80.9116 6.44405C80.9116 12.7717 86.0412 17.9013 92.3689 17.9013Z" stroke="#8AB0DD" stroke-width="0.33" stroke-miterlimit="10"/>
<path d="M80.9131 6.44409H103.826" stroke="#8AB0DD" stroke-width="0.33" stroke-miterlimit="10"/>
<path d="M92.3687 17.9013V-5.01318" stroke="#8AB0DD" stroke-width="0.33" stroke-miterlimit="10"/>
<path d="M126.739 -5.01318H103.826V17.8996H126.739V-5.01318Z" stroke="#8AB0DD" stroke-width="0.33" stroke-miterlimit="10"/>
<path d="M115.283 17.9013C121.611 17.9013 126.741 12.7717 126.741 6.44405C126.741 0.116396 121.611 -5.01318 115.283 -5.01318C108.956 -5.01318 103.826 0.116396 103.826 6.44405C103.826 12.7717 108.956 17.9013 115.283 17.9013Z" stroke="#8AB0DD" stroke-width="0.33" stroke-miterlimit="10"/>
<path d="M103.826 6.44409H126.739" stroke="#8AB0DD" stroke-width="0.33" stroke-miterlimit="10"/>
<path d="M115.283 17.9013V-5.01318" stroke="#8AB0DD" stroke-width="0.33" stroke-miterlimit="10"/>
<path d="M12.1731 17.9012H-10.7397V40.8141H12.1731V17.9012Z" stroke="#8AB0DD" stroke-width="0.33" stroke-miterlimit="10"/>
<path d="M0.716027 40.8141C7.04368 40.8141 12.1733 35.6846 12.1733 29.3569C12.1733 23.0292 7.04368 17.8997 0.716027 17.8997C-5.61163 17.8997 -10.7412 23.0292 -10.7412 29.3569C-10.7412 35.6846 -5.61163 40.8141 0.716027 40.8141Z" stroke="#8AB0DD" stroke-width="0.33" stroke-miterlimit="10"/>
<path d="M-10.7397 29.3569H12.1731" stroke="#8AB0DD" stroke-width="0.33" stroke-miterlimit="10"/>
<path d="M0.71582 40.8141V17.9012" stroke="#8AB0DD" stroke-width="0.33" stroke-miterlimit="10"/>
<path d="M35.0857 17.9012H12.1729V40.8141H35.0857V17.9012Z" stroke="#8AB0DD" stroke-width="0.33" stroke-miterlimit="10"/>
<path d="M23.6301 40.8141C29.9577 40.8141 35.0873 35.6846 35.0873 29.3569C35.0873 23.0292 29.9577 17.8997 23.6301 17.8997C17.3024 17.8997 12.1729 23.0292 12.1729 29.3569C12.1729 35.6846 17.3024 40.8141 23.6301 40.8141Z" stroke="#8AB0DD" stroke-width="0.33" stroke-miterlimit="10"/>
<path d="M12.1729 29.3569H35.0857" stroke="#8AB0DD" stroke-width="0.33" stroke-miterlimit="10"/>
<path d="M23.6304 40.8141V17.9012" stroke="#8AB0DD" stroke-width="0.33" stroke-miterlimit="10"/>
<path d="M57.9988 17.9012H35.0859V40.8141H57.9988V17.9012Z" stroke="#8AB0DD" stroke-width="0.33" stroke-miterlimit="10"/>
<path d="M46.5432 40.8141C52.8708 40.8141 58.0004 35.6846 58.0004 29.3569C58.0004 23.0292 52.8708 17.8997 46.5432 17.8997C40.2155 17.8997 35.0859 23.0292 35.0859 29.3569C35.0859 35.6846 40.2155 40.8141 46.5432 40.8141Z" stroke="#8AB0DD" stroke-width="0.33" stroke-miterlimit="10"/>
<path d="M35.0859 29.3569H57.9988" stroke="#8AB0DD" stroke-width="0.33" stroke-miterlimit="10"/>
<path d="M46.543 40.8141V17.9012" stroke="#8AB0DD" stroke-width="0.33" stroke-miterlimit="10"/>
<path d="M80.9114 17.9012H57.9985V40.8141H80.9114V17.9012Z" stroke="#8AB0DD" stroke-width="0.33" stroke-miterlimit="10"/>
<path d="M69.4558 40.8141C75.7834 40.8141 80.913 35.6846 80.913 29.3569C80.913 23.0292 75.7834 17.8997 69.4558 17.8997C63.1281 17.8997 57.9985 23.0292 57.9985 29.3569C57.9985 35.6846 63.1281 40.8141 69.4558 40.8141Z" stroke="#8AB0DD" stroke-width="0.33" stroke-miterlimit="10"/>
<path d="M57.9985 29.3569H80.913" stroke="#8AB0DD" stroke-width="0.33" stroke-miterlimit="10"/>
<path d="M69.4561 17.9012V40.8141" stroke="#8AB0DD" stroke-width="0.33" stroke-miterlimit="10"/>
<path d="M103.826 17.9012H80.9131V40.8141H103.826V17.9012Z" stroke="#8AB0DD" stroke-width="0.33" stroke-miterlimit="10"/>
<path d="M92.3689 40.8141C98.6965 40.8141 103.826 35.6846 103.826 29.3569C103.826 23.0292 98.6965 17.8997 92.3689 17.8997C86.0412 17.8997 80.9116 23.0292 80.9116 29.3569C80.9116 35.6846 86.0412 40.8141 92.3689 40.8141Z" stroke="#8AB0DD" stroke-width="0.33" stroke-miterlimit="10"/>
<path d="M80.9131 29.3569H103.826" stroke="#8AB0DD" stroke-width="0.33" stroke-miterlimit="10"/>
<path d="M92.3687 40.8141V17.9012" stroke="#8AB0DD" stroke-width="0.33" stroke-miterlimit="10"/>
<path d="M126.739 17.9012H103.826V40.8141H126.739V17.9012Z" stroke="#8AB0DD" stroke-width="0.33" stroke-miterlimit="10"/>
<path d="M115.283 40.8141C121.611 40.8141 126.741 35.6846 126.741 29.3569C126.741 23.0292 121.611 17.8997 115.283 17.8997C108.956 17.8997 103.826 23.0292 103.826 29.3569C103.826 35.6846 108.956 40.8141 115.283 40.8141Z" stroke="#8AB0DD" stroke-width="0.33" stroke-miterlimit="10"/>
<path d="M103.826 29.3569H126.739" stroke="#8AB0DD" stroke-width="0.33" stroke-miterlimit="10"/>
<path d="M115.283 40.8141V17.9012" stroke="#8AB0DD" stroke-width="0.33" stroke-miterlimit="10"/>
<path d="M12.1731 40.8141H-10.7397V63.7269H12.1731V40.8141Z" stroke="#8AB0DD" stroke-width="0.33" stroke-miterlimit="10"/>
<path d="M0.716027 63.7286C7.04368 63.7286 12.1733 58.599 12.1733 52.2713C12.1733 45.9437 7.04368 40.8141 0.716027 40.8141C-5.61163 40.8141 -10.7412 45.9437 -10.7412 52.2713C-10.7412 58.599 -5.61163 63.7286 0.716027 63.7286Z" stroke="#8AB0DD" stroke-width="0.33" stroke-miterlimit="10"/>
<path d="M-10.7397 52.2714H12.1731" stroke="#8AB0DD" stroke-width="0.33" stroke-miterlimit="10"/>
<path d="M0.71582 63.7269V40.8141" stroke="#8AB0DD" stroke-width="0.33" stroke-miterlimit="10"/>
<path d="M35.0857 40.8141H12.1729V63.7269H35.0857V40.8141Z" stroke="#8AB0DD" stroke-width="0.33" stroke-miterlimit="10"/>
<path d="M23.6301 63.7286C29.9577 63.7286 35.0873 58.599 35.0873 52.2713C35.0873 45.9437 29.9577 40.8141 23.6301 40.8141C17.3024 40.8141 12.1729 45.9437 12.1729 52.2713C12.1729 58.599 17.3024 63.7286 23.6301 63.7286Z" stroke="#8AB0DD" stroke-width="0.33" stroke-miterlimit="10"/>
<path d="M12.1729 52.2714H35.0857" stroke="#8AB0DD" stroke-width="0.33" stroke-miterlimit="10"/>
<path d="M23.6304 63.7269V40.8141" stroke="#8AB0DD" stroke-width="0.33" stroke-miterlimit="10"/>
<path d="M57.9988 40.8141H35.0859V63.7269H57.9988V40.8141Z" stroke="#8AB0DD" stroke-width="0.33" stroke-miterlimit="10"/>
<path d="M46.5432 63.7286C52.8708 63.7286 58.0004 58.599 58.0004 52.2713C58.0004 45.9437 52.8708 40.8141 46.5432 40.8141C40.2155 40.8141 35.0859 45.9437 35.0859 52.2713C35.0859 58.599 40.2155 63.7286 46.5432 63.7286Z" stroke="#8AB0DD" stroke-width="0.33" stroke-miterlimit="10"/>
<path d="M35.0859 52.2714H57.9988" stroke="#8AB0DD" stroke-width="0.33" stroke-miterlimit="10"/>
<path d="M46.543 63.7269V40.8141" stroke="#8AB0DD" stroke-width="0.33" stroke-miterlimit="10"/>
<path d="M80.9114 40.8141H57.9985V63.7269H80.9114V40.8141Z" stroke="#8AB0DD" stroke-width="0.33" stroke-miterlimit="10"/>
<path d="M69.4558 63.7286C75.7834 63.7286 80.913 58.599 80.913 52.2713C80.913 45.9437 75.7834 40.8141 69.4558 40.8141C63.1281 40.8141 57.9985 45.9437 57.9985 52.2713C57.9985 58.599 63.1281 63.7286 69.4558 63.7286Z" stroke="#8AB0DD" stroke-width="0.33" stroke-miterlimit="10"/>
<path d="M57.9985 52.2714H80.913" stroke="#8AB0DD" stroke-width="0.33" stroke-miterlimit="10"/>
<path d="M69.4561 63.7269V40.8141" stroke="#8AB0DD" stroke-width="0.33" stroke-miterlimit="10"/>
<path d="M103.826 40.8141H80.9131V63.7269H103.826V40.8141Z" stroke="#8AB0DD" stroke-width="0.33" stroke-miterlimit="10"/>
<path d="M92.3689 63.7286C98.6965 63.7286 103.826 58.599 103.826 52.2713C103.826 45.9437 98.6965 40.8141 92.3689 40.8141C86.0412 40.8141 80.9116 45.9437 80.9116 52.2713C80.9116 58.599 86.0412 63.7286 92.3689 63.7286Z" stroke="#8AB0DD" stroke-width="0.33" stroke-miterlimit="10"/>
<path d="M80.9131 52.2714H103.826" stroke="#8AB0DD" stroke-width="0.33" stroke-miterlimit="10"/>
<path d="M92.3687 63.7269V40.8141" stroke="#8AB0DD" stroke-width="0.33" stroke-miterlimit="10"/>
<path d="M126.739 40.8141H103.826V63.7269H126.739V40.8141Z" stroke="#8AB0DD" stroke-width="0.33" stroke-miterlimit="10"/>
<path d="M115.283 63.7286C121.611 63.7286 126.741 58.599 126.741 52.2713C126.741 45.9437 121.611 40.8141 115.283 40.8141C108.956 40.8141 103.826 45.9437 103.826 52.2713C103.826 58.599 108.956 63.7286 115.283 63.7286Z" stroke="#8AB0DD" stroke-width="0.33" stroke-miterlimit="10"/>
<path d="M103.826 52.2714H126.739" stroke="#8AB0DD" stroke-width="0.33" stroke-miterlimit="10"/>
<path d="M115.283 63.7269V40.8141" stroke="#8AB0DD" stroke-width="0.33" stroke-miterlimit="10"/>
<path d="M12.1731 63.7269H-10.7397V86.6398H12.1731V63.7269Z" stroke="#8AB0DD" stroke-width="0.33" stroke-miterlimit="10"/>
<path d="M0.716027 86.6414C7.04368 86.6414 12.1733 81.5118 12.1733 75.1842C12.1733 68.8565 7.04368 63.7269 0.716027 63.7269C-5.61163 63.7269 -10.7412 68.8565 -10.7412 75.1842C-10.7412 81.5118 -5.61163 86.6414 0.716027 86.6414Z" stroke="#8AB0DD" stroke-width="0.33" stroke-miterlimit="10"/>
<path d="M-10.7397 75.1842H12.1731" stroke="#8AB0DD" stroke-width="0.33" stroke-miterlimit="10"/>
<path d="M0.71582 86.6398V63.7269" stroke="#8AB0DD" stroke-width="0.33" stroke-miterlimit="10"/>
<path d="M35.0857 63.7269H12.1729V86.6398H35.0857V63.7269Z" stroke="#8AB0DD" stroke-width="0.33" stroke-miterlimit="10"/>
<path d="M23.6301 86.6414C29.9577 86.6414 35.0873 81.5118 35.0873 75.1842C35.0873 68.8565 29.9577 63.7269 23.6301 63.7269C17.3024 63.7269 12.1729 68.8565 12.1729 75.1842C12.1729 81.5118 17.3024 86.6414 23.6301 86.6414Z" stroke="#8AB0DD" stroke-width="0.33" stroke-miterlimit="10"/>
<path d="M12.1729 75.1842H35.0857" stroke="#8AB0DD" stroke-width="0.33" stroke-miterlimit="10"/>
<path d="M23.6304 86.6398V63.7269" stroke="#8AB0DD" stroke-width="0.33" stroke-miterlimit="10"/>
<path d="M57.9988 63.7269H35.0859V86.6398H57.9988V63.7269Z" stroke="#8AB0DD" stroke-width="0.33" stroke-miterlimit="10"/>
<path d="M46.5432 86.6414C52.8708 86.6414 58.0004 81.5118 58.0004 75.1842C58.0004 68.8565 52.8708 63.7269 46.5432 63.7269C40.2155 63.7269 35.0859 68.8565 35.0859 75.1842C35.0859 81.5118 40.2155 86.6414 46.5432 86.6414Z" stroke="#8AB0DD" stroke-width="0.33" stroke-miterlimit="10"/>
<path d="M35.0859 75.1842H57.9988" stroke="#8AB0DD" stroke-width="0.33" stroke-miterlimit="10"/>
<path d="M46.543 86.6398V63.7269" stroke="#8AB0DD" stroke-width="0.33" stroke-miterlimit="10"/>
<path d="M80.9114 63.7269H57.9985V86.6398H80.9114V63.7269Z" stroke="#8AB0DD" stroke-width="0.33" stroke-miterlimit="10"/>
<path d="M69.4558 86.6414C75.7834 86.6414 80.913 81.5118 80.913 75.1842C80.913 68.8565 75.7834 63.7269 69.4558 63.7269C63.1281 63.7269 57.9985 68.8565 57.9985 75.1842C57.9985 81.5118 63.1281 86.6414 69.4558 86.6414Z" stroke="#8AB0DD" stroke-width="0.33" stroke-miterlimit="10"/>
<path d="M57.9985 75.1842H80.913" stroke="#8AB0DD" stroke-width="0.33" stroke-miterlimit="10"/>
<path d="M69.4561 86.6398V63.7269" stroke="#8AB0DD" stroke-width="0.33" stroke-miterlimit="10"/>
<path d="M103.826 63.7269H80.9131V86.6398H103.826V63.7269Z" stroke="#8AB0DD" stroke-width="0.33" stroke-miterlimit="10"/>
<path d="M92.3689 86.6414C98.6965 86.6414 103.826 81.5118 103.826 75.1842C103.826 68.8565 98.6965 63.7269 92.3689 63.7269C86.0412 63.7269 80.9116 68.8565 80.9116 75.1842C80.9116 81.5118 86.0412 86.6414 92.3689 86.6414Z" stroke="#8AB0DD" stroke-width="0.33" stroke-miterlimit="10"/>
<path d="M80.9131 75.1842H103.826" stroke="#8AB0DD" stroke-width="0.33" stroke-miterlimit="10"/>
<path d="M92.3687 86.6398V63.7269" stroke="#8AB0DD" stroke-width="0.33" stroke-miterlimit="10"/>
<path d="M126.739 63.7269H103.826V86.6398H126.739V63.7269Z" stroke="#8AB0DD" stroke-width="0.33" stroke-miterlimit="10"/>
<path d="M115.283 86.6414C121.611 86.6414 126.741 81.5118 126.741 75.1842C126.741 68.8565 121.611 63.7269 115.283 63.7269C108.956 63.7269 103.826 68.8565 103.826 75.1842C103.826 81.5118 108.956 86.6414 115.283 86.6414Z" stroke="#8AB0DD" stroke-width="0.33" stroke-miterlimit="10"/>
<path d="M103.826 75.1842H126.739" stroke="#8AB0DD" stroke-width="0.33" stroke-miterlimit="10"/>
<path d="M115.283 86.6398V63.7269" stroke="#8AB0DD" stroke-width="0.33" stroke-miterlimit="10"/>
<path d="M126.739 86.6398H103.826V98.097H126.739V86.6398Z" stroke="#8AB0DD" stroke-width="0.33" stroke-miterlimit="10"/>
<path d="M103.826 98.097C103.862 95.0823 105.085 92.2033 107.23 90.0843C109.374 87.9652 112.268 86.7769 115.283 86.7769C118.297 86.7769 121.191 87.9652 123.335 90.0843C125.48 92.2033 126.703 95.0823 126.739 98.097" stroke="#8AB0DD" stroke-width="0.33" stroke-miterlimit="10"/>
<path d="M103.826 98.097H126.739" stroke="#8AB0DD" stroke-width="0.33" stroke-miterlimit="10"/>
<path d="M115.283 98.097V86.6398" stroke="#8AB0DD" stroke-width="0.33" stroke-miterlimit="10"/>
<path d="M103.826 86.6398H80.9131V98.097H103.826V86.6398Z" stroke="#8AB0DD" stroke-width="0.33" stroke-miterlimit="10"/>
<path d="M80.9131 98.097C80.9492 95.0823 82.1721 92.2033 84.3166 90.0843C86.4612 87.9652 89.3546 86.7769 92.3695 86.7769C95.3844 86.7769 98.2778 87.9652 100.422 90.0843C102.567 92.2033 103.79 95.0823 103.826 98.097" stroke="#8AB0DD" stroke-width="0.33" stroke-miterlimit="10"/>
<path d="M80.9131 98.097H103.826" stroke="#8AB0DD" stroke-width="0.33" stroke-miterlimit="10"/>
<path d="M92.3687 98.097V86.6398" stroke="#8AB0DD" stroke-width="0.33" stroke-miterlimit="10"/>
<path d="M80.9114 86.6398H57.9985V98.097H80.9114V86.6398Z" stroke="#8AB0DD" stroke-width="0.33" stroke-miterlimit="10"/>
<path d="M58 98.097C58.0361 95.0823 59.259 92.2033 61.4035 90.0843C63.5481 87.9652 66.4415 86.7769 69.4564 86.7769C72.4713 86.7769 75.3647 87.9652 77.5093 90.0843C79.6539 92.2033 80.8767 95.0823 80.9128 98.097" stroke="#8AB0DD" stroke-width="0.33" stroke-miterlimit="10"/>
<path d="M57.9985 98.097H80.913" stroke="#8AB0DD" stroke-width="0.33" stroke-miterlimit="10"/>
<path d="M69.4561 98.097V86.6398" stroke="#8AB0DD" stroke-width="0.33" stroke-miterlimit="10"/>
<path d="M57.9988 86.6398H35.0859V98.097H57.9988V86.6398Z" stroke="#8AB0DD" stroke-width="0.33" stroke-miterlimit="10"/>
<path d="M35.0859 98.097C35.0859 95.0584 36.293 92.1442 38.4417 89.9955C40.5903 87.8469 43.5045 86.6398 46.5432 86.6398C49.5818 86.6398 52.496 87.8469 54.6447 89.9955C56.7933 92.1442 58.0004 95.0584 58.0004 98.097" stroke="#8AB0DD" stroke-width="0.33" stroke-miterlimit="10"/>
<path d="M35.0859 98.097H57.9988" stroke="#8AB0DD" stroke-width="0.33" stroke-miterlimit="10"/>
<path d="M46.543 98.097V86.6398" stroke="#8AB0DD" stroke-width="0.33" stroke-miterlimit="10"/>
<path d="M35.0857 86.6398H12.1729V98.097H35.0857V86.6398Z" stroke="#8AB0DD" stroke-width="0.33" stroke-miterlimit="10"/>
<path d="M12.1729 98.097C12.2089 95.0823 13.4318 92.2033 15.5764 90.0843C17.721 87.9652 20.6144 86.7769 23.6293 86.7769C26.6442 86.7769 29.5376 87.9652 31.6821 90.0843C33.8267 92.2033 35.0496 95.0823 35.0857 98.097" stroke="#8AB0DD" stroke-width="0.33" stroke-miterlimit="10"/>
<path d="M12.1729 98.097H35.0857" stroke="#8AB0DD" stroke-width="0.33" stroke-miterlimit="10"/>
<path d="M23.6304 98.097V86.6398" stroke="#8AB0DD" stroke-width="0.33" stroke-miterlimit="10"/>
<path d="M12.1731 86.6398H-10.7397V98.097H12.1731V86.6398Z" stroke="#8AB0DD" stroke-width="0.33" stroke-miterlimit="10"/>
<path d="M-10.7397 98.097C-10.7037 95.0823 -9.48077 92.2033 -7.3362 90.0843C-5.19162 87.9652 -2.29823 86.7769 0.716669 86.7769C3.73157 86.7769 6.62496 87.9652 8.76954 90.0843C10.9141 92.2033 12.137 95.0823 12.1731 98.097" stroke="#8AB0DD" stroke-width="0.33" stroke-miterlimit="10"/>
<path d="M-10.7397 98.097H12.1731" stroke="#8AB0DD" stroke-width="0.33" stroke-miterlimit="10"/>
<path d="M0.71582 98.097V86.6398" stroke="#8AB0DD" stroke-width="0.33" stroke-miterlimit="10"/>
<path d="M103.826 132.467H126.739V109.554H103.826V132.467Z" stroke="#8AB0DD" stroke-width="0.33" stroke-miterlimit="10"/>
<path d="M115.283 132.467C121.611 132.467 126.741 127.338 126.741 121.01C126.741 114.682 121.611 109.553 115.283 109.553C108.956 109.553 103.826 114.682 103.826 121.01C103.826 127.338 108.956 132.467 115.283 132.467Z" stroke="#8AB0DD" stroke-width="0.33" stroke-miterlimit="10"/>
<path d="M115.283 109.554V132.467" stroke="#8AB0DD" stroke-width="0.33" stroke-miterlimit="10"/>
<path d="M80.9133 132.467H103.826V109.554H80.9133V132.467Z" stroke="#8AB0DD" stroke-width="0.33" stroke-miterlimit="10"/>
<path d="M92.3689 132.467C98.6965 132.467 103.826 127.338 103.826 121.01C103.826 114.682 98.6965 109.553 92.3689 109.553C86.0412 109.553 80.9116 114.682 80.9116 121.01C80.9116 127.338 86.0412 132.467 92.3689 132.467Z" stroke="#8AB0DD" stroke-width="0.33" stroke-miterlimit="10"/>
<path d="M92.3687 109.554V132.467" stroke="#8AB0DD" stroke-width="0.33" stroke-miterlimit="10"/>
<path d="M57.9988 132.467H80.9116V109.554H57.9988V132.467Z" stroke="#8AB0DD" stroke-width="0.33" stroke-miterlimit="10"/>
<path d="M69.4558 132.467C75.7834 132.467 80.913 127.338 80.913 121.01C80.913 114.682 75.7834 109.553 69.4558 109.553C63.1281 109.553 57.9985 114.682 57.9985 121.01C57.9985 127.338 63.1281 132.467 69.4558 132.467Z" stroke="#8AB0DD" stroke-width="0.33" stroke-miterlimit="10"/>
<path d="M69.4561 109.554V132.467" stroke="#8AB0DD" stroke-width="0.33" stroke-miterlimit="10"/>
<path d="M35.0872 132.467H58V109.554H35.0872V132.467Z" stroke="#8AB0DD" stroke-width="0.33" stroke-miterlimit="10"/>
<path d="M46.5432 132.467C52.8708 132.467 58.0004 127.338 58.0004 121.01C58.0004 114.682 52.8708 109.553 46.5432 109.553C40.2155 109.553 35.0859 114.682 35.0859 121.01C35.0859 127.338 40.2155 132.467 46.5432 132.467Z" stroke="#8AB0DD" stroke-width="0.33" stroke-miterlimit="10"/>
<path d="M46.543 109.554V132.467" stroke="#8AB0DD" stroke-width="0.33" stroke-miterlimit="10"/>
<path d="M12.1731 132.467H35.0859V109.554H12.1731L12.1731 132.467Z" stroke="#8AB0DD" stroke-width="0.33" stroke-miterlimit="10"/>
<path d="M23.6301 132.467C29.9577 132.467 35.0873 127.338 35.0873 121.01C35.0873 114.682 29.9577 109.553 23.6301 109.553C17.3024 109.553 12.1729 114.682 12.1729 121.01C12.1729 127.338 17.3024 132.467 23.6301 132.467Z" stroke="#8AB0DD" stroke-width="0.33" stroke-miterlimit="10"/>
<path d="M23.6304 109.554V132.467" stroke="#8AB0DD" stroke-width="0.33" stroke-miterlimit="10"/>
<path d="M-10.74 132.467H12.1729L12.1729 109.554H-10.74L-10.74 132.467Z" stroke="#8AB0DD" stroke-width="0.33" stroke-miterlimit="10"/>
<path d="M0.716027 132.467C7.04368 132.467 12.1733 127.338 12.1733 121.01C12.1733 114.682 7.04368 109.553 0.716027 109.553C-5.61163 109.553 -10.7412 114.682 -10.7412 121.01C-10.7412 127.338 -5.61163 132.467 0.716027 132.467Z" stroke="#8AB0DD" stroke-width="0.33" stroke-miterlimit="10"/>
<path d="M0.71582 109.554V132.467" stroke="#8AB0DD" stroke-width="0.33" stroke-miterlimit="10"/>
<path d="M-10.74 109.554H12.1729L12.1729 98.097H-10.74V109.554Z" stroke="#8AB0DD" stroke-width="0.33" stroke-miterlimit="10"/>
<path d="M12.1729 98.097C12.1911 99.6131 11.9081 101.118 11.3405 102.523C10.7729 103.929 9.93196 105.209 8.86634 106.287C7.80071 107.365 6.53163 108.222 5.13266 108.806C3.73368 109.39 2.23264 109.691 0.716514 109.691C-0.79961 109.691 -2.30066 109.39 -3.69963 108.806C-5.0986 108.222 -6.36768 107.365 -7.43331 106.287C-8.49894 105.209 -9.33992 103.929 -9.90752 102.523C-10.4751 101.118 -10.758 99.6131 -10.7399 98.097" stroke="#8AB0DD" stroke-width="0.33" stroke-miterlimit="10"/>
<path d="M12.1731 98.097H-10.7397" stroke="#8AB0DD" stroke-width="0.33" stroke-miterlimit="10"/>
<path d="M0.71582 98.097V109.554" stroke="#8AB0DD" stroke-width="0.33" stroke-miterlimit="10"/>
<path d="M12.1731 109.554H35.0859V98.097H12.1731V109.554Z" stroke="#8AB0DD" stroke-width="0.33" stroke-miterlimit="10"/>
<path d="M35.086 98.097C35.1042 99.6131 34.8212 101.118 34.2536 102.523C33.686 103.929 32.845 105.209 31.7794 106.287C30.7138 107.365 29.4447 108.222 28.0457 108.806C26.6468 109.39 25.1457 109.691 23.6296 109.691C22.1135 109.691 20.6124 109.39 19.2135 108.806C17.8145 108.222 16.5454 107.365 15.4798 106.287C14.4141 105.209 13.5732 103.929 13.0056 102.523C12.438 101.118 12.155 99.6131 12.1732 98.097" stroke="#8AB0DD" stroke-width="0.33" stroke-miterlimit="10"/>
<path d="M35.0857 98.097H12.1729" stroke="#8AB0DD" stroke-width="0.33" stroke-miterlimit="10"/>
<path d="M23.6304 98.097V109.554" stroke="#8AB0DD" stroke-width="0.33" stroke-miterlimit="10"/>
<path d="M35.0872 109.554H58V98.097H35.0872V109.554Z" stroke="#8AB0DD" stroke-width="0.33" stroke-miterlimit="10"/>
<path d="M58.0004 98.097C58.0004 99.6016 57.7041 101.091 57.1283 102.482C56.5525 103.872 55.7086 105.135 54.6447 106.199C53.5808 107.262 52.3177 108.106 50.9277 108.682C49.5376 109.258 48.0478 109.554 46.5432 109.554C45.0386 109.554 43.5487 109.258 42.1587 108.682C40.7686 108.106 39.5056 107.262 38.4417 106.199C37.3778 105.135 36.5338 103.872 35.9581 102.482C35.3823 101.091 35.0859 99.6016 35.0859 98.097" stroke="#8AB0DD" stroke-width="0.33" stroke-miterlimit="10"/>
<path d="M57.9988 98.097H35.0859" stroke="#8AB0DD" stroke-width="0.33" stroke-miterlimit="10"/>
<path d="M46.543 98.097V109.554" stroke="#8AB0DD" stroke-width="0.33" stroke-miterlimit="10"/>
<path d="M57.9988 109.554H80.9116V98.097H57.9988V109.554Z" stroke="#8AB0DD" stroke-width="0.33" stroke-miterlimit="10"/>
<path d="M80.9132 98.097C80.9313 99.6131 80.6484 101.118 80.0808 102.523C79.5132 103.929 78.6722 105.209 77.6066 106.287C76.5409 107.365 75.2719 108.222 73.8729 108.806C72.4739 109.39 70.9729 109.691 69.4567 109.691C67.9406 109.691 66.4396 109.39 65.0406 108.806C63.6416 108.222 62.3725 107.365 61.3069 106.287C60.2413 105.209 59.4003 103.929 58.8327 102.523C58.2651 101.118 57.9822 99.6131 58.0003 98.097" stroke="#8AB0DD" stroke-width="0.33" stroke-miterlimit="10"/>
<path d="M80.913 98.097H57.9985" stroke="#8AB0DD" stroke-width="0.33" stroke-miterlimit="10"/>
<path d="M69.4561 98.097V109.554" stroke="#8AB0DD" stroke-width="0.33" stroke-miterlimit="10"/>
<path d="M80.9133 109.554H103.826V98.097H80.9133V109.554Z" stroke="#8AB0DD" stroke-width="0.33" stroke-miterlimit="10"/>
<path d="M103.826 98.097C103.844 99.6131 103.561 101.118 102.993 102.523C102.426 103.929 101.585 105.209 100.519 106.287C99.4535 107.365 98.1845 108.222 96.7855 108.806C95.3865 109.39 93.8855 109.691 92.3693 109.691C90.8532 109.691 89.3522 109.39 87.9532 108.806C86.5542 108.222 85.2852 107.365 84.2195 106.287C83.1539 105.209 82.3129 103.929 81.7453 102.523C81.1777 101.118 80.8948 99.6131 80.9129 98.097" stroke="#8AB0DD" stroke-width="0.33" stroke-miterlimit="10"/>
<path d="M103.826 98.097H80.9131" stroke="#8AB0DD" stroke-width="0.33" stroke-miterlimit="10"/>
<path d="M92.3687 98.097V109.554" stroke="#8AB0DD" stroke-width="0.33" stroke-miterlimit="10"/>
<path d="M103.826 109.554H126.739V98.097H103.826V109.554Z" stroke="#8AB0DD" stroke-width="0.33" stroke-miterlimit="10"/>
<path d="M126.739 98.097C126.757 99.6131 126.474 101.118 125.906 102.523C125.339 103.929 124.498 105.209 123.432 106.287C122.367 107.365 121.098 108.222 119.699 108.806C118.3 109.39 116.799 109.691 115.282 109.691C113.766 109.691 112.265 109.39 110.866 108.806C109.467 108.222 108.198 107.365 107.133 106.287C106.067 105.209 105.226 103.929 104.658 102.523C104.091 101.118 103.808 99.6131 103.826 98.097" stroke="#8AB0DD" stroke-width="0.33" stroke-miterlimit="10"/>
<path d="M126.739 98.097H103.826" stroke="#8AB0DD" stroke-width="0.33" stroke-miterlimit="10"/>
<path d="M115.283 98.097V109.554" stroke="#8AB0DD" stroke-width="0.33" stroke-miterlimit="10"/>
<path d="M35.086 35.0854H29.3574V40.8141H35.086V35.0854Z" fill="white"/>
<path d="M63.7189 92.3766H57.9985V98.097H63.7189V92.3766Z" fill="black"/>
<path d="M80.9132 40.8141H40.8146V35.0855H35.0859V-2.9718H80.9132V40.8141Z" fill="white"/>
<path d="M0.000488281 53.035H103.783V64.4906H115.956V87.4051H46.5154V98.8607H0.000488281V53.035Z" fill="black"/>
<path d="M58.0006 98.097H46.5581V117.4H58.0006V98.097Z" fill="black"/>
<path d="M50.5289 23.0457L55.1597 20.3709C55.424 20.2239 55.6563 20.0259 55.8433 19.7883C56.0302 19.5507 56.168 19.2783 56.2486 18.9869C56.3293 18.6955 56.3512 18.391 56.313 18.0911C56.2748 17.7911 56.1773 17.5018 56.0263 17.2399C55.8752 16.9781 55.6735 16.7489 55.433 16.5657C55.1925 16.3825 54.9179 16.249 54.6253 16.1729C54.3327 16.0969 54.0279 16.0798 53.7286 16.1227C53.4293 16.1655 53.1416 16.2675 52.8821 16.4227L44.8774 21.0437L50.5289 23.0457Z" fill="#ED352F"/>
<path d="M54.0194 29.9181C54.5213 29.9183 55.0092 29.7529 55.4075 29.4475C55.8057 29.1422 56.092 28.7139 56.222 28.2291C56.352 27.7444 56.3184 27.2303 56.1263 26.7666C55.9343 26.3029 55.5945 25.9156 55.1599 25.6647L47.1569 21.0438C46.6333 20.7415 46.0111 20.6596 45.4272 20.8161C44.8433 20.9726 44.3454 21.3546 44.0431 21.8782C43.7409 22.4017 43.659 23.0239 43.8155 23.6079C43.972 24.1918 44.354 24.6897 44.8776 24.9919L52.8822 29.6129C53.2278 29.813 53.6201 29.9183 54.0194 29.9181Z" fill="#4B7ABD"/>
<path d="M61.9796 29.918C62.3794 29.918 62.7722 29.8128 63.1184 29.6128L71.1214 24.9919L65.5421 22.9489L60.8391 25.6647C60.4045 25.9155 60.0647 26.3029 59.8727 26.7665C59.6807 27.2302 59.647 27.7443 59.777 28.229C59.907 28.7138 60.1933 29.1421 60.5916 29.4475C60.9898 29.7529 61.4777 29.9183 61.9796 29.918Z" fill="#FCB912"/>
<path d="M69.9795 25.2971C70.482 25.2992 70.9712 25.1351 71.3708 24.8303C71.7705 24.5256 72.0582 24.0973 72.1893 23.6121C72.3203 23.1269 72.2873 22.612 72.0954 22.1475C71.9035 21.683 71.5634 21.295 71.1281 21.0437L63.1251 16.4228C62.8659 16.2731 62.5797 16.176 62.2829 16.1369C61.9862 16.0979 61.6846 16.1176 61.3955 16.1951C61.1063 16.2726 60.8353 16.4063 60.5978 16.5885C60.3603 16.7707 60.1611 16.998 60.0114 17.2572C59.8617 17.5165 59.7646 17.8026 59.7255 18.0994C59.6865 18.3962 59.7063 18.6978 59.7837 18.9869C59.8612 19.276 59.9949 19.5471 60.1771 19.7846C60.3594 20.022 60.5866 20.2213 60.8458 20.3709L68.8488 24.9919C69.1926 25.1905 69.5824 25.2958 69.9795 25.2971Z" fill="#00AC4E"/>
<path d="M29.3342 73.9535L27.2403 75.0923L26.561 73.6154C26.1946 74.0794 25.7271 74.4536 25.1942 74.7096C24.6613 74.9655 24.077 75.0964 23.4858 75.0923C20.9292 75.0923 19.5918 72.9755 19.5918 69.7001C19.5918 66.1458 21.1688 64.2275 23.686 64.2275C24.8642 64.2275 25.7832 64.6673 26.3821 65.4861V60.2531H28.5384V72.3552L29.3342 73.9535ZM26.3805 72.516V66.9515C25.8204 66.4815 25.1145 66.2205 24.3834 66.213C22.7851 66.213 21.8465 67.4306 21.8465 69.728C21.8465 71.9253 22.726 73.1429 24.3424 73.1429C25.0669 73.1312 25.7732 72.9138 26.3788 72.516H26.3805Z" fill="white"/>
<path d="M40.04 69.9052H32.9691C33.1085 71.7234 34.5263 72.941 36.763 72.941C37.9002 72.941 39.1391 72.7014 39.9776 72.2616L39.2983 74.4786C38.5992 74.8593 37.421 75.0989 36.0639 75.0989C32.8493 75.0989 30.7324 72.9213 30.7324 69.6065C30.7324 66.2918 32.7492 64.234 35.9638 64.234C38.6206 64.234 40.2976 65.7519 40.2976 68.2084C40.296 68.7836 40.2092 69.3554 40.04 69.9052ZM33.0905 68.4086H38.1775C38.0774 66.8497 37.339 66.1113 35.9605 66.1113C34.4607 66.1047 33.4269 66.9629 33.0889 68.4021L33.0905 68.4086Z" fill="white"/>
<path d="M45.2908 74.8281L41.2163 64.49H43.5941L46.2475 71.7102L46.5478 72.6079H46.6266L46.9318 71.7102L49.5573 64.49H51.8941L47.8409 74.8281H45.2908Z" fill="white"/>
<path d="M58.9686 64.5081H63.642L63.3417 66.1654H58.6699L57.0289 75.4714C56.5695 78.0674 54.8317 79.0454 52.3948 79.0454C51.6538 79.05 50.9155 78.9562 50.1992 78.7664L50.1582 77.0877C50.8629 77.2062 51.5769 77.2612 52.2915 77.2518C53.7503 77.2518 54.7086 76.6726 54.9285 75.455L56.5695 66.1687H53.3171L53.6174 64.5113H56.8714L57.0355 63.5514C57.495 60.9767 59.2114 59.997 61.6302 59.997C62.3786 59.9871 63.1248 60.0816 63.8472 60.2776L63.8865 61.9941C63.1863 61.8408 62.4699 61.7736 61.7533 61.7939C60.3158 61.7939 59.3558 62.3732 59.1359 63.599L58.9686 64.5081Z" fill="white"/>
<path d="M73.2874 69.9052H66.2181C66.3576 71.7234 67.7754 72.941 70.012 72.941C71.1492 72.941 72.3881 72.7014 73.2267 72.2616L72.5473 74.4786C71.8482 74.8593 70.67 75.0989 69.313 75.0989C66.0983 75.0989 63.9814 72.9213 63.9814 69.6065C63.9814 66.2918 65.9982 64.234 69.2129 64.234C71.8696 64.234 73.5466 65.7519 73.5466 68.2084C73.5445 68.7837 73.4572 69.3555 73.2874 69.9052ZM66.3379 68.4086H71.4249C71.3248 66.8497 70.5863 66.1113 69.2079 66.1113C67.7146 66.1047 66.6776 66.9629 66.3379 68.4021V68.4086Z" fill="white"/>
<path d="M75.6034 74.2127L75.4639 71.8956C76.3828 72.5356 78.0599 73.0952 79.8174 73.0952C81.1547 73.0952 82.1147 72.6751 82.1147 71.7365C82.1147 69.7788 75.6854 71.597 75.6854 67.6029C75.6854 65.7453 77.0835 64.1683 80.4179 64.1683C82.4544 64.1683 84.0133 64.6606 84.0133 65.9045C83.9922 66.2592 83.8822 66.6028 83.6933 66.9038C82.6149 66.4371 81.4535 66.1926 80.2785 66.1851C78.6802 66.1851 77.8416 66.784 77.8416 67.4437C77.8416 69.1798 84.3514 67.662 84.3514 71.556C84.3514 73.7335 82.4347 75.0923 79.5794 75.0923C78.2066 75.0849 76.8512 74.785 75.6034 74.2127Z" fill="white"/>
<path d="M95.4734 72.6358L95.0336 74.6525C94.227 74.9441 93.3757 75.0929 92.518 75.0923C89.9417 75.0923 88.8423 73.7533 88.8423 71.8563V66.3049H85.9082V64.49H88.8423V61.6511H91.0001V64.49H95.1764V66.3082H91.0001V71.1999C91.0001 72.5389 91.6992 73.1379 92.9168 73.1379C93.6158 73.1346 94.8941 72.9754 95.4734 72.6358Z" fill="white"/>
</g>
</svg>
