<svg width="32" height="32" viewBox="0 0 32 32" fill="none" xmlns="http://www.w3.org/2000/svg">
<rect width="32" height="32" fill="#2B82FB"/>
<path d="M10.5416 13.6667C10.549 11.7936 10.6181 10.7915 11.2669 10.1428C11.993 9.41666 13.1617 9.41666 15.4991 9.41666C17.8365 9.41666 19.0051 9.41666 19.7313 10.1428C20.38 10.7915 20.4492 11.7936 20.4565 13.6667M10.5416 19.3333C10.549 21.2064 10.6181 22.2085 11.2669 22.8572C11.993 23.5833 13.1617 23.5833 15.4991 23.5833C17.8365 23.5833 19.0051 23.5833 19.7313 22.8572C20.38 22.2085 20.4492 21.2064 20.4565 19.3333" stroke="#F7F7F7" stroke-width="1.5" stroke-linecap="round"/>
<path d="M14.7916 21.4583H16.2083" stroke="#F7F7F7" stroke-width="1.5" stroke-linecap="round" stroke-linejoin="round"/>
<path d="M18.3334 15.0833L19.2021 15.8322C19.5674 16.147 19.75 16.3044 19.75 16.5C19.75 16.6956 19.5674 16.853 19.2021 17.1678L18.3334 17.9167" stroke="#F7F7F7" stroke-width="1.5" stroke-linecap="round" stroke-linejoin="round"/>
<path d="M12.6667 15.0833L11.7979 15.8322C11.4326 16.147 11.25 16.3044 11.25 16.5C11.25 16.6956 11.4326 16.853 11.7979 17.1678L12.6667 17.9167" stroke="#F7F7F7" stroke-width="1.5" stroke-linecap="round" stroke-linejoin="round"/>
<path d="M16.2083 14.375L14.7916 18.625" stroke="#F7F7F7" stroke-width="1.5" stroke-linecap="round" stroke-linejoin="round"/>
</svg>
